<svg width="605" height="605" viewBox="0 0 605 605" fill="none" xmlns="http://www.w3.org/2000/svg">
<path d="M404.14 41.8418C404.14 41.8418 310.486 8.5426 218.562 61.5648C126.639 114.587 80.223 219.821 40.3898 304.121C0.55662 388.422 23.4498 474.187 93.6298 513.282C163.81 552.377 211.52 494.745 309.966 491.938C408.411 489.13 434.922 503.203 516.67 447.591C598.418 391.979 613.119 260.634 548.687 163.459C484.254 66.2838 404.14 41.8418 404.14 41.8418Z" fill="#3B82F6"/>
<path opacity="0.7" d="M404.14 41.8418C404.14 41.8418 310.486 8.5426 218.562 61.5648C126.639 114.587 80.223 219.821 40.3898 304.121C0.55662 388.422 23.4498 474.187 93.6298 513.282C163.81 552.377 211.52 494.745 309.966 491.938C408.411 489.13 434.922 503.203 516.67 447.591C598.418 391.979 613.119 260.634 548.687 163.459C484.254 66.2838 404.14 41.8418 404.14 41.8418Z" fill="white"/>
<path d="M49.5253 342.793C49.5253 342.793 51.7759 347.064 49.7794 351.069C47.7829 355.075 45.2661 359.092 46.7665 361.1C48.2669 363.109 52.8165 365.614 52.2841 369.873C51.7517 374.132 45.7622 382.662 49.5253 387.43C53.2884 392.197 59.5562 391.943 59.8103 397.207C60.0644 402.47 53.7603 406.729 55.539 411.497C57.3177 416.264 67.639 417.268 67.639 420.523C67.639 423.778 63.6218 427.299 66.8888 430.808C70.1558 434.317 85.91 443.477 88.1122 439.714C90.3144 435.951 94.9124 425.545 91.9237 410.771C91.4155 408.29 87.8823 407.734 87.3862 404.225C86.8901 400.716 88.3905 394.448 85.8858 390.915C83.3811 387.381 75.3467 386.147 74.8506 383.388C74.3545 380.63 77.8514 373.866 74.3424 369.607C70.8334 365.347 62.557 363.363 62.557 360.58C62.557 357.797 65.0738 354.312 61.5648 350.549C58.0558 346.786 49.5253 342.793 49.5253 342.793Z" fill="#3B82F6"/>
<path d="M61.5285 372.341C66.7557 388.071 75.9033 409.452 79.618 419.773C84.1313 432.309 88.088 441.384 90.0603 453.919C92.0326 466.455 93.17 550.417 93.17 550.417" stroke="#263238" stroke-linecap="round" stroke-linejoin="round"/>
<path d="M50.82 344.306C50.82 344.306 55.0792 347.815 58.8423 363.109C59.0843 364.089 59.3626 365.13 59.6651 366.231" stroke="#263238" stroke-linecap="round" stroke-linejoin="round"/>
<path d="M127.897 371.361C127.387 372.386 127.105 373.51 127.072 374.655C127.038 375.8 127.254 376.938 127.703 377.992C129.301 381.198 131.333 384.405 130.123 386.014C128.913 387.623 125.283 389.644 125.707 393.032C126.13 396.42 130.922 403.269 127.909 407.08C124.896 410.892 119.887 410.71 119.681 414.909C119.475 419.108 124.521 422.532 123.093 426.343C121.665 430.155 113.413 430.966 113.413 433.603C113.413 436.241 116.632 439.024 114.018 441.831C111.405 444.639 98.8207 451.935 97.0178 448.91C95.2149 445.885 91.5849 437.572 93.9686 425.751C94.3679 423.766 97.1993 423.331 97.5986 420.511C97.9979 417.692 96.8 412.683 98.8086 409.875C100.817 407.068 107.279 406.064 107.629 403.825C107.98 401.587 105.209 396.202 108.029 392.79C110.848 389.378 117.467 387.769 117.467 385.53C117.467 383.292 115.458 380.509 118.265 377.496C121.073 374.483 127.897 371.361 127.897 371.361Z" fill="#3B82F6"/>
<path d="M118.29 395.005C114.115 407.625 106.795 424.71 103.77 432.962C100.14 443.005 97.0178 450.265 95.4206 460.296C93.8234 470.327 92.9401 537.518 92.9401 537.518" stroke="#263238" stroke-linecap="round" stroke-linejoin="round"/>
<path d="M126.893 372.571C126.893 372.571 123.481 375.378 120.48 387.623C120.286 388.41 120.056 389.245 119.814 390.116" stroke="#263238" stroke-linecap="round" stroke-linejoin="round"/>
<path d="M58.9028 428.183C59.3275 429.038 59.5625 429.975 59.5918 430.929C59.621 431.883 59.4438 432.833 59.0722 433.712C57.7291 436.399 56.0472 439.073 57.0515 440.416C58.0558 441.759 61.0808 443.441 60.742 446.284C60.4032 449.128 56.386 454.839 58.9028 458.021C61.4196 461.204 65.6062 461.034 65.7756 464.555C65.945 468.076 61.71 470.932 62.92 474.114C64.13 477.297 70.9665 477.974 70.9665 480.164C70.9665 482.354 68.2924 484.69 70.4704 487.037C72.6484 489.385 83.1875 495.507 84.7 492.99C86.2125 490.474 89.2496 483.516 87.241 473.63C86.9143 471.973 84.5548 471.598 84.216 469.25C83.8772 466.903 84.8815 462.716 83.2117 460.369C81.5419 458.021 76.1695 457.186 75.8307 455.335C75.4919 453.484 77.8393 448.971 75.4919 446.115C73.1445 443.259 67.6148 441.928 67.6148 440.065C67.6148 438.202 69.2967 435.866 66.9493 433.349C64.6019 430.833 58.9028 428.183 58.9028 428.183Z" fill="#3B82F6"/>
<path d="M66.9251 447.942C70.422 458.481 76.5325 472.747 79.0251 479.644C82.0501 488.029 84.6758 494.164 86.0068 502.477C87.3378 510.789 88.088 541.971 88.088 541.971" stroke="#263238" stroke-linecap="round" stroke-linejoin="round"/>
<path d="M59.7377 429.187C59.7377 429.187 62.5933 431.534 65.098 441.759C65.2674 442.424 65.4489 443.114 65.6546 443.84" stroke="#263238" stroke-linecap="round" stroke-linejoin="round"/>
<path d="M145.2 424.008C144.589 424.743 144.144 425.602 143.898 426.525C143.651 427.449 143.608 428.415 143.772 429.356C144.462 432.272 145.49 435.261 144.196 436.338C142.901 437.415 139.598 438.359 139.271 441.178C138.944 443.997 141.558 450.495 138.376 453.024C135.193 455.553 131.116 454.415 130.184 457.864C129.252 461.312 132.604 464.979 130.777 467.81C128.95 470.642 122.065 469.722 121.557 471.852C121.048 473.981 123.142 476.861 120.48 478.652C117.818 480.443 106.202 484 105.27 481.181C104.338 478.361 103.019 470.92 107.218 461.76C107.932 460.223 110.316 460.405 111.175 458.191C112.034 455.976 112.022 451.681 114.188 449.781C116.354 447.881 121.774 448.281 122.525 446.563C123.275 444.844 122.016 439.908 124.945 437.669C127.873 435.431 133.572 435.394 133.995 433.591C134.419 431.788 133.318 429.139 136.186 427.227C139.053 425.315 145.2 424.008 145.2 424.008Z" fill="#3B82F6"/>
<path d="M132.918 441.396C127.11 450.858 117.89 463.357 113.897 469.504C109.057 476.97 103.213 481.749 101.87 490.135C100.527 498.52 99.8008 529.629 99.8008 529.629" stroke="#263238" stroke-linecap="round" stroke-linejoin="round"/>
<path d="M144.208 424.795C144.208 424.795 140.892 426.428 136.113 435.806C135.798 436.411 135.46 437.016 135.084 437.705" stroke="#263238" stroke-linecap="round" stroke-linejoin="round"/>
<path d="M85.7043 559.867H104.35C114.163 554.809 121.133 542.007 121.133 526.991C121.293 517.989 118.543 509.175 113.292 501.86H76.7624C71.5292 509.181 68.7965 517.994 68.97 526.991C68.97 542.007 75.8912 554.809 85.7043 559.867Z" fill="white" stroke="#263238" stroke-linecap="round" stroke-linejoin="round"/>
<path d="M104.689 559.867H85.7043V562.65H104.689V559.867Z" fill="white" stroke="#263238" stroke-linecap="round" stroke-linejoin="round"/>
<path d="M363.46 90.75H66.2354V315.713H363.46V90.75Z" stroke="#263238" stroke-linecap="round" stroke-linejoin="round"/>
<path d="M356.514 96.7153H73.1687V309.76H356.514V96.7153Z" stroke="#263238" stroke-linecap="round" stroke-linejoin="round"/>
<path d="M159.539 127.982C159.539 127.982 113.244 124.63 109.348 131.89C105.452 139.15 108.222 271.887 110.461 273.557C112.699 275.227 175.16 276.34 181.294 274.113C187.429 271.887 179.08 136.899 179.08 132.991C179.08 129.083 164.56 127.413 164.56 127.413" stroke="#263238" stroke-width="2" stroke-linecap="round" stroke-linejoin="round"/>
<path d="M114.127 237.85C114.224 255.346 114.599 268.172 115.482 268.523C118.265 269.636 177.386 274.658 179.056 269.08C180.726 263.502 174.591 137.456 174.591 137.456" stroke="#263238" stroke-width="2" stroke-linecap="round" stroke-linejoin="round"/>
<path d="M172.364 136.899C172.364 136.899 116.039 134.673 115.494 137.456C115.131 139.235 114.103 191.495 114.115 229.489" stroke="#263238" stroke-width="2" stroke-linecap="round" stroke-linejoin="round"/>
<path d="M117.152 146.942H171.808" stroke="#263238" stroke-width="2" stroke-linecap="round" stroke-linejoin="round"/>
<path d="M166.786 144.414C163.447 147.947 166.786 144.414 169.025 139.368C171.263 134.322 166.786 140.372 161.765 144.414C156.743 148.455 159.539 145.43 161.208 139.876C162.878 134.322 159.539 139.876 155.074 143.409C150.609 146.942 152.847 145.43 154.517 139.368C156.187 133.306 154.517 139.368 147.826 143.409C141.134 147.451 144.474 147.439 147.826 141.389C151.177 135.339 145.599 141.389 139.465 143.409C133.33 145.43 139.465 143.409 141.691 137.855C143.917 132.301 137.783 139.368 133.33 142.393C128.877 145.418 133.33 142.393 134.443 138.86C135.556 135.326 131.648 139.876 127.183 144.414C122.718 148.951 127.183 144.414 127.74 140.372C128.296 136.331 122.718 146.942 122.718 146.942C122.718 146.942 124.388 136.839 123.275 139.368C122.532 140.989 121.594 142.513 120.48 143.905" stroke="#3B82F6" stroke-width="2" stroke-linecap="round" stroke-linejoin="round"/>
<path d="M147.269 156.417H119.935V184.864H147.269V156.417Z" stroke="#3B82F6" stroke-width="2" stroke-linecap="round" stroke-linejoin="round"/>
<path d="M125.513 156.417L121.06 161.438L130.535 158.099L121.06 167.016L136.669 156.973L121.06 173.708L142.248 158.099L119.935 178.729L146.712 160.325L119.935 184.864L146.712 167.016L127.752 183.751L147.269 173.151L135 183.194L146.712 179.286L144.474 183.194" stroke="#3B82F6" stroke-width="2" stroke-linecap="round" stroke-linejoin="round"/>
<path d="M170.828 243.428H149.931V265.184H170.828V243.428Z" stroke="#3B82F6" stroke-width="2" stroke-linecap="round" stroke-linejoin="round"/>
<path d="M154.19 243.428L150.778 247.263L158.026 244.71L150.778 251.535L162.721 243.851L150.778 256.653L166.98 244.71L149.931 260.489L170.392 246.416L149.931 265.184L170.392 251.535L155.896 264.324L170.828 256.217L161.438 263.901L170.392 260.912L168.686 263.901" stroke="#3B82F6" stroke-width="2" stroke-linecap="round" stroke-linejoin="round"/>
<path d="M119.379 195.463H172.921" stroke="#263238" stroke-width="2" stroke-linecap="round" stroke-linejoin="round"/>
<path d="M118.822 200.485L171.808 201.041" stroke="#263238" stroke-width="2" stroke-linecap="round" stroke-linejoin="round"/>
<path d="M152.847 158.099H170.138" stroke="#263238" stroke-width="2" stroke-linecap="round" stroke-linejoin="round"/>
<path d="M152.847 164.79H170.138" stroke="#263238" stroke-width="2" stroke-linecap="round" stroke-linejoin="round"/>
<path d="M152.847 171.481H170.138" stroke="#263238" stroke-width="2" stroke-linecap="round" stroke-linejoin="round"/>
<path d="M152.847 178.172H170.138" stroke="#263238" stroke-width="2" stroke-linecap="round" stroke-linejoin="round"/>
<path d="M171.808 203.824H119.935V228.92H171.808V203.824Z" stroke="#3B82F6" stroke-width="2" stroke-linecap="round" stroke-linejoin="round"/>
<path d="M119.379 208.846L126.626 204.381L118.265 217.207L132.205 204.381L119.935 222.797L141.691 203.824L122.73 226.137L146.156 204.381L128.308 226.137L153.96 203.824L133.33 228.363L158.982 204.381L139.465 227.25L165.673 203.824L145.599 228.363L171.808 203.824L152.847 227.807L170.695 212.198L158.982 226.693L170.695 218.889L168.396 222.616L166.23 226.137" stroke="#3B82F6" stroke-width="2" stroke-linecap="round" stroke-linejoin="round"/>
<path d="M122.174 235.623H170.138" stroke="#263238" stroke-width="2" stroke-linecap="round" stroke-linejoin="round"/>
<path d="M121.06 241.758H136.669" stroke="#263238" stroke-width="2" stroke-linecap="round" stroke-linejoin="round"/>
<path d="M181.294 140.251L219.579 135.544" stroke="#263238" stroke-width="2" stroke-linecap="round" stroke-linejoin="round"/>
<path d="M175.16 167.573H215.307" stroke="#263238" stroke-width="2" stroke-linecap="round" stroke-linejoin="round"/>
<path d="M111.574 218.332L94.2832 224.467" stroke="#263238" stroke-width="2" stroke-linecap="round" stroke-linejoin="round"/>
<path d="M160.652 269.08C160.652 269.08 157.312 286.371 180.169 290.86" stroke="#263238" stroke-width="2" stroke-linecap="round" stroke-linejoin="round"/>
<path d="M176.829 286.371L182.407 291.392L174.591 293.619" stroke="#263238" stroke-width="2" stroke-linecap="round" stroke-linejoin="round"/>
<path d="M210.286 162.551L219.216 168.129L211.411 171.481" stroke="#263238" stroke-width="2" stroke-linecap="round" stroke-linejoin="round"/>
<path d="M212.331 133.874L221.805 134.988L215.114 141.122" stroke="#263238" stroke-width="2" stroke-linecap="round" stroke-linejoin="round"/>
<path d="M96.5096 218.889L87.0353 226.694L98.7481 227.25" stroke="#263238" stroke-width="2" stroke-linecap="round" stroke-linejoin="round"/>
<path d="M243.198 162.551H221.999V184.864H243.198V162.551Z" fill="#3B82F6"/>
<path d="M227.02 167.573L239.29 168.129" stroke="#263238" stroke-width="2" stroke-linecap="round" stroke-linejoin="round"/>
<path d="M227.02 172.038L239.29 172.594" stroke="#263238" stroke-width="2" stroke-linecap="round" stroke-linejoin="round"/>
<path d="M227.02 176.503L239.29 177.058" stroke="#263238" stroke-width="2" stroke-linecap="round" stroke-linejoin="round"/>
<path d="M209.485 192.614L188.432 195.098L191.047 217.257L212.1 214.772L209.485 192.614Z" fill="#3B82F6"/>
<path d="M193.999 199.505L206.245 198.621" stroke="#263238" stroke-width="2" stroke-linecap="round" stroke-linejoin="round"/>
<path d="M194.52 203.933L206.765 203.05" stroke="#263238" stroke-width="2" stroke-linecap="round" stroke-linejoin="round"/>
<path d="M195.04 208.362L207.297 207.479" stroke="#263238" stroke-width="2" stroke-linecap="round" stroke-linejoin="round"/>
<path d="M99.6277 230.541L78.5746 233.025L81.1894 255.184L102.243 252.7L99.6277 230.541Z" fill="#3B82F6"/>
<path d="M84.1192 237.426L96.3765 236.543" stroke="#263238" stroke-width="2" stroke-linecap="round" stroke-linejoin="round"/>
<path d="M84.6395 241.867L96.8968 240.984" stroke="#263238" stroke-width="2" stroke-linecap="round" stroke-linejoin="round"/>
<path d="M85.1719 246.296L97.4171 245.412" stroke="#263238" stroke-width="2" stroke-linecap="round" stroke-linejoin="round"/>
<path d="M209.168 276.964L188.087 274.722L185.728 296.91L206.808 299.151L209.168 276.964Z" fill="#3B82F6"/>
<path d="M192.571 280.236L204.708 282.087" stroke="#263238" stroke-width="2" stroke-linecap="round" stroke-linejoin="round"/>
<path d="M192.1 284.677L204.236 286.528" stroke="#263238" stroke-width="2" stroke-linecap="round" stroke-linejoin="round"/>
<path d="M191.628 289.117L203.764 290.969" stroke="#263238" stroke-width="2" stroke-linecap="round" stroke-linejoin="round"/>
<path d="M363.448 315.713H66.2354V323.312H363.448V315.713Z" fill="#263238" stroke="#263238" stroke-linecap="round" stroke-linejoin="round"/>
<path d="M482.717 370.175V355.994H440.041V370.175C440.037 374.821 438.434 379.324 435.503 382.929L433.64 385.24H489.118L487.255 382.929C484.324 379.324 482.722 374.821 482.717 370.175Z" fill="#263238" stroke="#263238" stroke-linecap="round" stroke-linejoin="round"/>
<path d="M480.297 370.175V355.994H437.621V370.175C437.617 374.821 436.014 379.324 433.083 382.929L431.22 385.24H486.698L484.835 382.929C481.904 379.324 480.302 374.821 480.297 370.175Z" fill="white" stroke="#263238" stroke-linecap="round" stroke-linejoin="round"/>
<path d="M480.636 359.999H437.79V364.343H480.636V359.999Z" fill="#263238"/>
<path d="M534.457 234.51H383.449C377.782 234.51 373.188 239.104 373.188 244.771V350.198C373.188 355.865 377.782 360.459 383.449 360.459H534.457C540.124 360.459 544.718 355.865 544.718 350.198V244.771C544.718 239.104 540.124 234.51 534.457 234.51Z" fill="#263238" stroke="#263238" stroke-linecap="round" stroke-linejoin="round"/>
<path d="M539.067 234.51H388.059C382.392 234.51 377.798 239.104 377.798 244.771V350.198C377.798 355.865 382.392 360.459 388.059 360.459H539.067C544.734 360.459 549.328 355.865 549.328 350.198V244.771C549.328 239.104 544.734 234.51 539.067 234.51Z" fill="#263238" stroke="#263238" stroke-linecap="round" stroke-linejoin="round"/>
<path d="M373.188 340.881H544.73V350.198C544.73 352.92 543.649 355.529 541.725 357.454C539.8 359.378 537.19 360.459 534.469 360.459H383.461C380.74 360.459 378.13 359.378 376.206 357.454C374.281 355.529 373.2 352.92 373.2 350.198V340.881H373.188Z" fill="white" stroke="#263238" stroke-linecap="round" stroke-linejoin="round"/>
<path d="M536.091 242.351H381.816V331.334H536.091V242.351Z" fill="white"/>
<path d="M435.503 251.62H405.156C403.125 251.62 401.478 253.266 401.478 255.298V317.976C401.478 320.007 403.125 321.654 405.156 321.654H435.503C437.535 321.654 439.182 320.007 439.182 317.976V255.298C439.182 253.266 437.535 251.62 435.503 251.62Z" fill="#263238"/>
<path d="M436.023 257.488H404.648V315.762H436.023V257.488Z" fill="#3B82F6"/>
<path d="M477.381 258.468H448.983V261.408H477.381V258.468Z" fill="#263238"/>
<path d="M462.704 264.845H449.479V278.554H462.704V264.845Z" fill="#3B82F6"/>
<path d="M475.421 306.953H468.343V314.298H475.421V306.953Z" fill="#3B82F6"/>
<path d="M476.74 288.343H449.805V302.052H476.74V288.343Z" fill="#3B82F6"/>
<path d="M465.148 265.825H475.917" stroke="#263238" stroke-linecap="round" stroke-linejoin="round"/>
<path d="M465.148 269.249H475.917" stroke="#263238" stroke-linecap="round" stroke-linejoin="round"/>
<path d="M465.148 272.674H475.917" stroke="#263238" stroke-linecap="round" stroke-linejoin="round"/>
<path d="M465.148 276.098H475.917" stroke="#263238" stroke-linecap="round" stroke-linejoin="round"/>
<path d="M450.289 283.939H476.244" stroke="#263238" stroke-linecap="round" stroke-linejoin="round"/>
<path d="M450.289 305.489H476.244" stroke="#263238" stroke-linecap="round" stroke-linejoin="round"/>
<path d="M479.838 255.54H446.538V317.25H479.838V255.54Z" stroke="#263238" stroke-linecap="round" stroke-linejoin="round"/>
<path d="M520.482 255.54H489.143V278.554H520.482V255.54Z" fill="#BFBFBF"/>
<path d="M520.482 255.54H489.143V260.44H520.482V255.54Z" fill="#263238"/>
<path d="M499.766 263.998H491.575V271.923H499.766V263.998Z" stroke="#263238" stroke-linecap="round" stroke-linejoin="round"/>
<path d="M516.15 263.998H507.958V271.923H516.15V263.998Z" stroke="#263238" stroke-linecap="round" stroke-linejoin="round"/>
<path d="M517.469 258.323C517.469 258.562 517.398 258.796 517.265 258.995C517.132 259.194 516.943 259.349 516.722 259.441C516.501 259.532 516.257 259.556 516.023 259.51C515.788 259.463 515.572 259.348 515.403 259.179C515.234 259.009 515.119 258.794 515.072 258.559C515.025 258.324 515.049 258.081 515.141 257.86C515.232 257.639 515.387 257.45 515.586 257.317C515.785 257.184 516.019 257.113 516.259 257.113C516.579 257.113 516.887 257.24 517.114 257.467C517.341 257.694 517.469 258.002 517.469 258.323Z" fill="white"/>
<path d="M510.596 259.509C511.251 259.509 511.782 258.978 511.782 258.323C511.782 257.668 511.251 257.137 510.596 257.137C509.941 257.137 509.41 257.668 509.41 258.323C509.41 258.978 509.941 259.509 510.596 259.509Z" fill="white"/>
<path d="M517.977 291.029H493.983V308.659H517.977V291.029Z" fill="#BFBFBF"/>
<path d="M517.977 291.029H493.983V294.78H517.977V291.029Z" fill="#263238"/>
<path d="M515.678 293.159C515.68 293.341 515.628 293.52 515.529 293.673C515.429 293.826 515.286 293.946 515.119 294.017C514.951 294.088 514.766 294.108 514.586 294.074C514.407 294.04 514.242 293.954 514.112 293.825C513.983 293.697 513.894 293.534 513.857 293.355C513.821 293.176 513.838 292.991 513.908 292.822C513.977 292.653 514.095 292.509 514.246 292.407C514.398 292.306 514.576 292.251 514.758 292.251C515 292.251 515.232 292.347 515.404 292.516C515.576 292.686 515.675 292.917 515.678 293.159Z" fill="white"/>
<path d="M511.322 293.159C511.322 293.4 511.226 293.63 511.056 293.801C510.886 293.971 510.655 294.066 510.414 294.066C510.174 294.066 509.943 293.971 509.773 293.801C509.602 293.63 509.507 293.4 509.507 293.159C509.507 292.918 509.602 292.687 509.773 292.517C509.943 292.347 510.174 292.251 510.414 292.251C510.655 292.251 510.886 292.347 511.056 292.517C511.226 292.687 511.322 292.918 511.322 293.159Z" fill="white"/>
<path d="M396.977 247.021H386.898V326.071H396.977V247.021Z" fill="#BFBFBF"/>
<path d="M396.977 247.021H386.898V250.651H396.977V247.021Z" fill="#263238"/>
<path d="M394.158 253.072H389.318V258.722H394.158V253.072Z" stroke="#263238" stroke-linecap="round" stroke-linejoin="round"/>
<path d="M394.158 262.34H389.318V267.991H394.158V262.34Z" stroke="#263238" stroke-linecap="round" stroke-linejoin="round"/>
<path d="M394.158 271.621H389.318V277.272H394.158V271.621Z" stroke="#263238" stroke-linecap="round" stroke-linejoin="round"/>
<path d="M394.158 280.901H389.318V286.552H394.158V280.901Z" stroke="#263238" stroke-linecap="round" stroke-linejoin="round"/>
<path d="M394.158 290.17H389.318V295.821H394.158V290.17Z" stroke="#263238" stroke-linecap="round" stroke-linejoin="round"/>
<path d="M394.158 299.451H389.318V305.102H394.158V299.451Z" stroke="#263238" stroke-linecap="round" stroke-linejoin="round"/>
<path d="M394.158 308.732H389.318V314.382H394.158V308.732Z" stroke="#263238" stroke-linecap="round" stroke-linejoin="round"/>
<path d="M394.158 318H389.318V323.651H394.158V318Z" stroke="#263238" stroke-linecap="round" stroke-linejoin="round"/>
<path d="M531.698 246.211H403.438V249.442H531.698V246.211Z" fill="#BFBFBF"/>
<path d="M531.698 324.462H403.438V327.692H531.698V324.462Z" fill="#BFBFBF"/>
<path d="M486.71 385.24H431.22V387.769H486.71V385.24Z" fill="#263238" stroke="#263238" stroke-linecap="round" stroke-linejoin="round"/>
<path d="M522.986 383.171H394.157V387.769H522.986V383.171Z" fill="white" stroke="#263238" stroke-linecap="round" stroke-linejoin="round"/>
<path d="M278.711 562.65H273.472L270.846 402.119H281.337L278.711 562.65Z" fill="white" stroke="#263238" stroke-linecap="round" stroke-linejoin="round"/>
<path d="M278.711 562.65H276.4L276.715 402.119H281.337L278.711 562.65Z" fill="#263238" stroke="#263238" stroke-linecap="round" stroke-linejoin="round"/>
<path d="M353.405 562.65H348.165L345.54 402.119H356.03L353.405 562.65Z" fill="white" stroke="#263238" stroke-linecap="round" stroke-linejoin="round"/>
<path d="M353.405 562.65H351.094L351.408 402.119H356.03L353.405 562.65Z" fill="#263238" stroke="#263238" stroke-linecap="round" stroke-linejoin="round"/>
<path d="M326.664 562.65H321.412L318.799 402.119H329.277L326.664 562.65Z" fill="#263238" stroke="#263238" stroke-linecap="round" stroke-linejoin="round"/>
<path d="M326.664 562.65H324.353L324.655 402.119H329.277L326.664 562.65Z" fill="#263238" stroke="#263238" stroke-linecap="round" stroke-linejoin="round"/>
<path d="M377.133 562.65H371.881L369.268 402.119H379.746L377.133 562.65Z" fill="#263238" stroke="#263238" stroke-linecap="round" stroke-linejoin="round"/>
<path d="M377.133 562.65H374.81L375.124 402.119H379.746L377.133 562.65Z" fill="#263238" stroke="#263238" stroke-linecap="round" stroke-linejoin="round"/>
<path d="M381.065 404.576H298.81V505.006H381.065V404.576Z" fill="#263238" stroke="#263238" stroke-linecap="round" stroke-linejoin="round"/>
<path d="M358.354 404.576H276.098V505.006H358.354V404.576Z" fill="white" stroke="#263238" stroke-linecap="round" stroke-linejoin="round"/>
<path d="M524.487 562.65H519.247L516.622 402.119H527.112L524.487 562.65Z" fill="white" stroke="#263238" stroke-linecap="round" stroke-linejoin="round"/>
<path d="M524.487 562.65H522.176L522.49 402.119H527.112L524.487 562.65Z" fill="#263238" stroke="#263238" stroke-linecap="round" stroke-linejoin="round"/>
<path d="M572.439 562.65H567.187L564.574 402.119H575.052L572.439 562.65Z" fill="#263238" stroke="#263238" stroke-linecap="round" stroke-linejoin="round"/>
<path d="M572.439 562.65H570.128L570.43 402.119H575.053L572.439 562.65Z" fill="#263238" stroke="#263238" stroke-linecap="round" stroke-linejoin="round"/>
<path d="M578.368 396.069H263.937V407.117H578.368V396.069Z" fill="white" stroke="#263238" stroke-linecap="round" stroke-linejoin="round"/>
<path d="M578.368 396.069H263.937V401.587H578.368V396.069Z" fill="#263238" stroke="#263238" stroke-linecap="round" stroke-linejoin="round"/>
<path d="M578.368 396.069H531.952V407.117H578.368V396.069Z" fill="#263238" stroke="#263238" stroke-linecap="round" stroke-linejoin="round"/>
<path d="M588.532 387.2H255.407V398.247H588.532V387.2Z" fill="white" stroke="#263238" stroke-linecap="round" stroke-linejoin="round"/>
<path d="M588.532 387.2H542.116V398.247H588.532V387.2Z" fill="#263238" stroke="#263238" stroke-linecap="round" stroke-linejoin="round"/>
<path d="M353.32 414.219H281.325V449.309H353.32V414.219Z" fill="white" stroke="#263238" stroke-linecap="round" stroke-linejoin="round"/>
<path d="M325.188 428.134H309.458V433.579H325.188V428.134Z" fill="#263238" stroke="#263238" stroke-linecap="round" stroke-linejoin="round"/>
<path d="M353.32 458.384H281.325V493.474H353.32V458.384Z" fill="white" stroke="#263238" stroke-linecap="round" stroke-linejoin="round"/>
<path d="M325.188 472.299H309.458V477.744H325.188V472.299Z" fill="#263238" stroke="#263238" stroke-linecap="round" stroke-linejoin="round"/>
<path d="M464.144 468.839H485.658V425.569H464.144V468.839Z" fill="#263238"/>
<path d="M469.528 513.391H480.285V453.472H469.528V513.391Z" fill="#263238"/>
<path d="M479.281 508.781C479.281 508.781 488.32 519.042 511.552 522.611C523.821 524.499 536.599 526.846 547.682 532.715C554.809 536.49 569.002 544.754 569.002 554.192C569.014 555.578 568.684 556.946 568.043 558.175C567.403 559.404 566.47 560.457 565.327 561.242C564.184 562.027 562.867 562.519 561.489 562.675C560.112 562.832 558.717 562.648 557.428 562.14C556.138 561.632 554.993 560.815 554.092 559.761C553.192 558.707 552.564 557.448 552.264 556.095C551.964 554.741 552 553.335 552.37 551.999C552.74 550.663 553.432 549.438 554.386 548.432C548.582 539.702 539.584 533.597 529.327 531.432C511.661 527.584 498.762 529.157 473.909 512.629L479.281 508.781Z" fill="#263238"/>
<path d="M471.597 508.781C471.597 508.781 462.559 519.042 439.327 522.611C427.057 524.499 414.28 526.846 403.196 532.715C396.057 536.49 381.876 544.754 381.876 554.192C381.863 555.579 382.191 556.949 382.831 558.18C383.471 559.411 384.404 560.466 385.547 561.252C386.69 562.038 388.009 562.531 389.388 562.688C390.766 562.845 392.162 562.661 393.453 562.152C394.744 561.643 395.89 560.824 396.79 559.769C397.69 558.713 398.318 557.452 398.617 556.097C398.916 554.743 398.877 553.335 398.505 551.999C398.132 550.662 397.437 549.437 396.481 548.432C402.287 539.705 411.284 533.601 421.54 531.432C439.218 527.584 452.116 529.157 476.97 512.629L471.597 508.781Z" fill="#263238"/>
<path d="M471.234 562.65H479.353C479.795 562.65 480.152 562.292 480.152 561.851V547.573C480.152 547.132 479.795 546.775 479.353 546.775H471.234C470.793 546.775 470.436 547.132 470.436 547.573V561.851C470.436 562.292 470.793 562.65 471.234 562.65Z" fill="#263238"/>
<path d="M472.989 562.65H477.599V510.221H472.989V562.65Z" fill="#263238"/>
<path d="M527.003 300.637C524.317 314.96 522.7 329.464 522.163 344.027C521.812 355.256 521.631 364.875 521.462 373.358C520.953 399.723 520.663 414.34 516.513 418.273C515.98 418.636 512.544 420.753 505.356 421.358C503.348 421.528 496.959 421.612 488.271 421.661C460.72 421.576 431.764 421.346 431.304 421.346H429.623C429.55 421.346 429.489 421.479 429.429 421.54C412.876 421.443 408.617 421.346 408.314 421.346H406.633C403.16 424.359 405.229 428.231 408.254 428.255C410.517 428.255 449.95 428.606 476.921 428.606C481.689 428.606 486.178 428.606 490.159 428.606H508.381C522.502 428.606 534.203 428.509 537.421 428.243C547.404 427.42 551.881 424.044 552.353 423.657C559.008 417.752 559.262 404.793 559.879 373.503C560.036 365.033 560.23 355.425 560.569 344.245C561.113 329.62 562.771 315.058 565.53 300.685L527.003 300.637Z" fill="#263238"/>
<path d="M313.087 526.556L315.81 540.773C315.81 540.773 313.39 545.916 304.012 550.151C294.635 554.386 290.097 556.201 290.097 557.411C290.097 558.621 289.492 561.343 291.912 562.251C294.332 563.158 345.757 562.251 345.757 562.251C345.757 562.251 348.48 561.041 348.48 555.293C348.48 549.546 346.06 538.958 346.06 536.538C346.06 534.118 344.354 528.286 344.354 527.463C344.354 526.64 323.675 527.766 323.675 527.766C323.675 527.766 317.625 522.018 313.087 526.556Z" fill="white" stroke="#263238" stroke-linecap="round" stroke-linejoin="round"/>
<path d="M323.675 527.766C323.675 527.766 325.188 541.378 326.095 542.286C327.003 543.193 346.06 543.193 346.06 543.193" fill="white"/>
<path d="M323.675 527.766C323.675 527.766 325.188 541.378 326.095 542.286C327.003 543.193 346.06 543.193 346.06 543.193" stroke="#263238" stroke-linecap="round" stroke-linejoin="round"/>
<path d="M346.06 536.538L324.885 536.84" stroke="#263238" stroke-linecap="round" stroke-linejoin="round"/>
<path d="M290.097 559.831H347.875" stroke="#263238" stroke-linecap="round" stroke-linejoin="round"/>
<path d="M350.9 356.042C350.9 356.042 334.129 412.501 332.072 420.281C330.015 428.062 341.898 496.378 341.898 497.6C341.898 498.822 343.531 502.513 343.531 506.603C343.531 510.693 341.898 511.915 342.72 513.149C343.543 514.383 346.35 517.239 345.987 519.695C345.862 521.588 344.992 523.354 343.567 524.608C342.665 525.55 341.542 526.252 340.3 526.652H330.475C330.475 526.652 328.055 508.236 321.473 459.558C314.89 410.88 325.575 383.05 327.62 374.047C329.012 368.24 331.071 362.612 333.754 357.277L350.9 356.042Z" fill="#263238" stroke="#263238" stroke-linecap="round" stroke-linejoin="round"/>
<path d="M299.172 526.556L301.895 540.773C301.895 540.773 299.475 545.916 290.097 550.151C280.72 554.386 276.182 556.201 276.182 557.411C276.182 558.621 275.577 561.343 277.997 562.251C280.417 563.158 331.842 562.251 331.842 562.251C331.842 562.251 334.565 561.041 334.565 555.293C334.565 549.546 332.145 538.958 332.145 536.538C332.145 534.118 330.439 528.286 330.439 527.463C330.439 526.64 309.76 527.766 309.76 527.766C309.76 527.766 303.71 522.018 299.172 526.556Z" fill="white" stroke="#263238" stroke-linecap="round" stroke-linejoin="round"/>
<path d="M309.76 527.766C309.76 527.766 311.273 541.378 312.18 542.286C313.088 543.193 332.145 543.193 332.145 543.193" fill="white"/>
<path d="M309.76 527.766C309.76 527.766 311.273 541.378 312.18 542.286C313.088 543.193 332.145 543.193 332.145 543.193" stroke="#263238" stroke-linecap="round" stroke-linejoin="round"/>
<path d="M332.145 536.538L310.97 536.84" stroke="#263238" stroke-linecap="round" stroke-linejoin="round"/>
<path d="M276.182 559.831H333.96" stroke="#263238" stroke-linecap="round" stroke-linejoin="round"/>
<path d="M283.394 356.042C283.394 356.042 282.983 391.641 285.028 406.778C287.072 421.915 294.853 457.102 296.075 476.329C297.297 495.556 299.354 504.57 299.354 504.57C299.354 504.57 296.45 506.99 296.45 509.41C296.45 511.83 298.083 511.83 297.66 515.557C297.236 519.284 295.615 520.457 296.849 522.103C298.083 523.748 298.894 527.003 302.984 527.826C307.074 528.649 326.301 528.238 330.39 527.415C334.48 526.592 336.525 522.502 336.525 519.235C336.525 515.968 335.315 513.512 335.315 509.821C335.315 506.131 337.36 502.876 337.36 500.42C337.36 497.963 336.537 496.729 336.537 494.273C336.537 491.817 331.225 452.552 331.225 444.372C331.225 436.193 330.814 408.363 332.036 401.405C333.258 394.448 339.405 361.318 339.405 361.318L283.394 356.042Z" fill="#3B82F6" stroke="#263238" stroke-linecap="round" stroke-linejoin="round"/>
<path d="M309.324 368.046C314.183 369.712 319.248 370.702 324.377 370.986C328.317 371.096 332.246 371.464 336.138 372.087L338.34 361.802L309.324 368.046Z" fill="#263238" stroke="#263238" stroke-linecap="round" stroke-linejoin="round"/>
<path d="M304.835 369.812C304.835 369.812 306.844 426.029 310.885 444.772C314.927 463.515 320.251 494.297 318.92 498.314C317.589 502.331 315.568 511.697 315.568 511.697C315.568 511.697 322.937 510.366 322.937 514.371C322.937 518.376 312.228 521.074 314.903 523.083C317.577 525.092 320.239 527.294 320.239 527.294" stroke="#263238" stroke-linecap="round" stroke-linejoin="round"/>
<path d="M328.612 513.488C328.612 513.488 306.396 517.118 312.7 518.328C319.004 519.538 331.02 518.025 331.625 516.525C332.23 515.024 330.415 513.185 328.612 513.488Z" fill="#263238" stroke="#263238" stroke-linecap="round" stroke-linejoin="round"/>
<path d="M230.553 124.812L229.936 149.931L253.628 149.725L253.834 124.606L230.553 124.812Z" fill="#3B82F6"/>
<path d="M257.512 171.167C257.512 171.167 252.406 166.06 250.155 161.366C247.905 156.671 244.65 153.815 244.65 150.548C244.65 147.281 246.078 139.658 245.461 136.657C244.844 133.657 245.461 127.268 247.506 127.268C247.98 127.268 248.449 127.375 248.877 127.582C249.304 127.789 249.679 128.09 249.974 128.463C250.268 128.835 250.474 129.27 250.577 129.733C250.68 130.197 250.676 130.678 250.567 131.14C250.155 133.185 251.777 140.336 251.777 140.336C251.777 140.336 253.41 126.651 253.616 125.816C253.822 124.981 256.677 124.993 257.911 125.61C259.146 126.227 260.561 126.009 260.561 128.671C260.561 131.333 259.944 134.383 259.944 135C259.944 135.617 265.668 138.884 265.873 141.328C266.079 143.772 265.462 149.701 264.034 152.218C263.057 153.741 262.246 155.363 261.614 157.058C261.408 157.869 267.132 166.448 267.132 166.448L257.512 171.167Z" fill="white" stroke="#263238" stroke-linecap="round" stroke-linejoin="round"/>
<path d="M267.035 162.539L253.12 173.175C253.12 173.175 276.848 222.265 277.671 223.85C278.494 225.435 295.663 236.131 295.663 236.131L321.436 204.212C321.436 204.212 289.117 193.987 288.307 192.765C287.496 191.543 267.035 162.539 267.035 162.539Z" fill="#263238" stroke="#263238" stroke-linecap="round" stroke-linejoin="round"/>
<path d="M283.442 342.938L282.232 361.996C282.232 361.996 297.962 368.651 314.902 368.348C331.842 368.046 354.53 361.391 354.53 361.391L357.857 342.636C357.857 342.636 317.02 345.963 304.617 344.753C292.215 343.543 283.442 342.938 283.442 342.938Z" fill="white" stroke="#263238" stroke-linecap="round" stroke-linejoin="round"/>
<path d="M271.342 336.888L270.435 342.333C270.435 342.333 283.249 349.327 311.575 352.013C329.008 353.62 346.586 351.77 363.302 346.568L363.605 337.191C348.541 340.782 333.111 342.609 317.625 342.636C302.047 342.232 286.546 340.307 271.342 336.888Z" fill="#263238" stroke="#263238" stroke-linecap="round" stroke-linejoin="round"/>
<path d="M294.332 224.358C294.332 224.358 284.35 241.903 281.022 255.516C277.695 269.128 271.04 332.048 270.132 335.678C269.225 339.308 290.4 346.568 304.315 346.871C318.23 347.173 349.387 347.778 354.832 345.661C360.277 343.543 365.42 340.518 365.42 337.191C365.42 333.863 365.722 321.461 365.722 311.478C365.722 301.496 362.697 248.861 359.975 236.761C357.252 224.661 355.437 216.191 354.53 214.678C353.622 213.166 346.967 205.906 333.355 206.813C322.73 207.596 312.406 210.693 303.105 215.888C299.654 218.11 296.674 220.987 294.332 224.358Z" fill="#263238" stroke="#263238" stroke-linecap="round" stroke-linejoin="round"/>
<path d="M203.098 243.912C203.098 243.912 198.186 245.957 197.774 250.869C197.363 255.782 206.378 260.682 211.689 268.051C217.001 275.42 223.959 283.14 223.959 283.14L234.607 297.866L247.288 287.23L214.557 249.26C214.557 249.26 216.191 245.63 214.146 244.347C212.425 243.547 210.562 243.096 208.666 243.021C206.769 242.946 204.877 243.249 203.098 243.912Z" fill="white" stroke="#263238" stroke-linecap="round" stroke-linejoin="round"/>
<path d="M203.921 255.371L240.79 243.089C240.79 243.089 243.21 253.326 254.281 263.961C260.92 270.357 268.035 276.239 275.565 281.555L242.423 300.37L203.921 255.371Z" fill="white" stroke="#263238" stroke-linecap="round" stroke-linejoin="round"/>
<path d="M203.921 255.37C205.546 253.548 206.546 251.255 206.777 248.824C206.886 247.702 206.576 246.578 205.906 245.671C205.235 244.764 204.252 244.137 203.147 243.912L239.556 233.276C239.556 233.276 246.513 235.696 240.766 243.089L203.921 255.37Z" fill="white" stroke="#263238" stroke-linecap="round" stroke-linejoin="round"/>
<path d="M252.708 294.272C252.708 294.272 244.529 293.062 244.117 290.642C243.706 288.222 242.073 282.874 240.487 280.829C238.902 278.784 231.074 274.694 228.617 271.827C226.161 268.959 224.528 264.869 222.894 265.28C221.261 265.692 218.804 267.325 219.615 268.91C220.426 270.496 224.116 277.514 224.116 277.514L224.939 280.369C224.939 280.369 217.57 279.159 216.348 278.736C215.992 278.634 215.616 278.622 215.253 278.7C214.891 278.778 214.554 278.944 214.271 279.183C213.987 279.422 213.767 279.727 213.629 280.071C213.492 280.415 213.44 280.787 213.48 281.156C213.48 283.201 211.847 283.201 213.892 284.423C215.937 285.645 218.393 287.29 218.393 287.29C218.393 287.29 221.261 293.836 222.023 295.059C222.785 296.281 229.392 299.16 230.614 299.971C231.836 300.782 238.394 302.839 241.661 303.601C244.928 304.363 252.297 307.292 252.297 307.292L254.342 297.878L252.708 294.272Z" fill="white" stroke="#263238" stroke-linecap="round" stroke-linejoin="round"/>
<path d="M339.441 237.813C339.441 237.813 338.618 272.589 338.618 274.222C338.618 275.856 339.828 309.409 336.198 312.265C332.568 315.12 314.515 318.811 288.331 318C262.146 317.189 250.688 311.454 250.688 311.454L252.733 294.272L302.645 290.642C302.645 290.642 297.333 252.6 298.144 239.507C298.955 226.415 309.603 219.458 309.603 219.458" fill="#263238"/>
<path d="M339.441 237.813C339.441 237.813 338.618 272.589 338.618 274.222C338.618 275.856 339.828 309.409 336.198 312.265C332.568 315.12 314.515 318.811 288.331 318C262.146 317.189 250.688 311.454 250.688 311.454L252.733 294.272L302.645 290.642C302.645 290.642 297.333 252.6 298.144 239.507C298.955 226.415 309.603 219.458 309.603 219.458" stroke="#263238" stroke-linecap="round" stroke-linejoin="round"/>
<path d="M284.35 319.525C284.35 319.525 333.887 321.255 336.501 315.169C339.115 309.082 339.102 249.115 339.102 249.115" stroke="#707070" stroke-linecap="round" stroke-linejoin="round"/>
<path d="M306.13 226.512C306.13 226.512 295.688 237.813 297.43 252.587C299.173 267.362 302.657 290.581 302.657 290.581L283.527 291.707" stroke="#707070" stroke-linecap="round" stroke-linejoin="round"/>
<path d="M284.991 132.035C284.991 132.035 278.131 143.905 279.449 145.478C280.768 147.051 279.716 149.967 279.716 149.967C279.716 149.967 272.855 155.243 273.387 157.082C273.92 158.921 279.437 163.943 279.437 163.943C279.437 163.943 280.49 178.185 281.857 179.504C283.225 180.822 292.142 182.395 293.957 182.662C294.959 182.785 295.937 183.054 296.861 183.46L302.125 211.932L331.661 185.312L326.918 172.655C326.918 172.655 324.28 155.715 324.498 147.874C324.716 140.033 311.043 130.462 302.875 128.091C294.708 125.719 284.991 132.035 284.991 132.035Z" fill="white" stroke="#263238" stroke-linecap="round" stroke-linejoin="round"/>
<path d="M290.521 115.942C290.521 115.942 283.672 108.827 275.493 114.369C267.313 119.911 269.697 128.889 277.078 132.035C284.459 135.181 293.159 132.822 290.267 135.992C287.375 139.162 286.637 146.011 291.053 147.33C295.47 148.649 294.744 153.658 294.744 155.8C294.744 157.941 298.374 157.651 299.233 155.8C300.092 153.948 302.125 148.951 307.134 151.056C312.144 153.162 311.89 164.766 310.038 167.67C308.187 170.574 306.348 170.308 306.348 170.308C306.348 170.308 309.252 171.36 307.401 174.785L305.561 178.221C305.561 178.221 309.772 183.23 320.323 181.379C330.875 179.528 333.246 174.785 331.661 170.84C330.076 166.895 326.385 166.351 330.342 160.555C334.299 154.759 344.064 147.886 343.265 134.709C342.745 126.009 322.175 117.769 322.175 117.769C322.175 117.769 326.918 109.856 316.125 104.847C305.331 99.8371 292.929 105.645 293.715 110.897C294.502 116.148 290.521 115.942 290.521 115.942Z" fill="#263238" stroke="#263238" stroke-linecap="round" stroke-linejoin="round"/>
<path d="M279.377 144.535C279.377 144.535 276.025 143.639 275.747 145.224C275.469 146.809 275.747 154.711 275.747 154.711C276.927 155.444 278.332 155.728 279.704 155.509C281.555 154.977 280.49 148.382 280.49 148.382" stroke="#263238" stroke-linecap="round" stroke-linejoin="round"/>
<path d="M300.286 153.392L276.001 149.374L276.025 147.85L300.286 153.392Z" fill="#263238" stroke="#263238" stroke-linecap="round" stroke-linejoin="round"/>
<path d="M335.097 177.132C335.097 177.132 321.642 186.884 312.41 196.903C303.178 206.922 292.106 218.006 291.61 221.43C291.114 224.854 292.13 230.13 297.406 224.588C302.681 219.046 312.434 211.677 319.827 211.145C327.22 210.613 338.546 214.315 344.342 215.102C350.138 215.888 353.84 217.522 355.946 214.315C358.051 211.109 352.521 204.03 352.521 200.328C352.521 196.625 353.308 190.309 350.67 185.808C348.032 181.306 339.574 175.813 335.097 177.132Z" fill="#757575" stroke="#263238" stroke-linecap="round" stroke-linejoin="round"/>
<path d="M352.328 190.188C351.579 192.75 350.557 195.225 349.279 197.569C347.742 199.856 326.119 204.187 326.119 204.187C326.119 204.187 343.93 203.171 347.234 203.171C350.537 203.171 354.361 206.22 354.361 206.22L352.582 201.38C352.582 201.38 353.32 192.487 352.328 190.188Z" fill="#263238" stroke="#263238" stroke-linecap="round" stroke-linejoin="round"/>
<path d="M38.72 562.65H591.69" stroke="#263238" stroke-linecap="round" stroke-linejoin="round"/>
</svg>
