<svg width="605" height="605" viewBox="0 0 605 605" fill="none" xmlns="http://www.w3.org/2000/svg">
<path d="M49.6825 318.448C49.6825 318.448 52.5139 406.379 125.913 464.991C199.311 523.603 301.048 527.802 383.401 533.38C465.753 538.958 529 492.325 538.523 421.854C548.045 351.384 485.21 330.705 451.003 250.47C416.797 170.235 419.87 143.893 347.669 94.5615C275.469 45.2298 162.418 75.5161 103.177 160.047C43.935 244.577 49.6825 318.448 49.6825 318.448Z" fill="#3B82F6"/>
<path opacity="0.7" d="M49.6825 318.448C49.6825 318.448 52.5139 406.379 125.913 464.991C199.311 523.603 301.048 527.802 383.401 533.38C465.753 538.958 529 492.325 538.523 421.854C548.045 351.384 485.21 330.705 451.003 250.47C416.797 170.235 419.87 143.893 347.669 94.5615C275.469 45.2298 162.418 75.5161 103.177 160.047C43.935 244.577 49.6825 318.448 49.6825 318.448Z" fill="white"/>
<path d="M101.002 460.44H71.9812" stroke="#263238" stroke-width="1.1133" stroke-miterlimit="10"/>
<path d="M533.017 460.441H100.66" stroke="#263238" stroke-width="1.1133" stroke-miterlimit="10"/>
<path d="M370.345 506.881C390.653 506.881 407.117 502.352 407.117 496.765C407.117 491.179 390.653 486.65 370.345 486.65C350.036 486.65 333.573 491.179 333.573 496.765C333.573 502.352 350.036 506.881 370.345 506.881Z" fill="#263238"/>
<path d="M180.29 519.743C142.018 519.743 136.367 514.214 135.811 509.749C135.684 508.819 135.776 507.873 136.078 506.984C136.381 506.096 136.885 505.29 137.553 504.631C147.862 493.813 207.273 498.387 289.481 504.715C300.951 505.599 312.809 506.506 324.97 507.414C408.036 513.585 441.481 512.786 448.39 504.437C449.793 502.731 450.084 500.601 449.309 497.721C446.018 485.682 402.023 485.621 385.361 486.565C384.98 486.585 384.606 486.454 384.321 486.2C384.035 485.947 383.861 485.591 383.836 485.21C383.825 485.022 383.851 484.833 383.913 484.654C383.975 484.476 384.072 484.312 384.198 484.171C384.324 484.03 384.477 483.916 384.647 483.835C384.818 483.753 385.003 483.707 385.192 483.698C391.568 483.322 447.591 480.503 452.08 497.008C453.109 500.807 452.637 503.844 450.604 506.312C442.848 515.726 411.098 516.731 324.764 510.318C312.592 509.41 300.734 508.503 289.263 507.619C210.903 501.569 149 496.814 139.634 506.651C139.264 507.003 138.983 507.437 138.814 507.919C138.646 508.401 138.595 508.917 138.666 509.422C139.017 512.278 145.926 518.667 201.586 516.44C232.719 515.23 263.998 511.806 264.313 511.77C264.677 511.755 265.033 511.879 265.31 512.117C265.586 512.354 265.762 512.688 265.802 513.051C265.842 513.413 265.743 513.777 265.525 514.069C265.307 514.362 264.986 514.56 264.627 514.625C264.313 514.625 232.937 518.062 201.707 519.308C193.673 519.598 186.558 519.743 180.29 519.743Z" fill="white" stroke="#263238" stroke-width="1.1133" stroke-miterlimit="10"/>
<path d="M356.672 505.647C380.602 505.647 400.002 486.247 400.002 462.317C400.002 438.386 380.602 418.987 356.672 418.987C332.741 418.987 313.342 438.386 313.342 462.317C313.342 486.247 332.741 505.647 356.672 505.647Z" fill="white"/>
<mask id="mask0_12_468" style="mask-type:luminance" maskUnits="userSpaceOnUse" x="313" y="418" width="88" height="88">
<path d="M356.672 505.647C380.602 505.647 400.002 486.247 400.002 462.317C400.002 438.386 380.602 418.987 356.672 418.987C332.741 418.987 313.342 438.386 313.342 462.317C313.342 486.247 332.741 505.647 356.672 505.647Z" fill="white"/>
</mask>
<g mask="url(#mask0_12_468)">
<path d="M356.672 505.647C364.557 505.652 372.294 503.505 379.049 499.437C385.804 495.368 391.32 489.533 395.003 482.561C398.686 475.589 400.396 467.743 399.948 459.871C399.501 451.998 396.913 444.397 392.464 437.887C391.992 456.763 381.574 484.629 327.39 494.212C335.366 501.569 345.821 505.652 356.672 505.647Z" fill="#3B82F6"/>
<path opacity="0.3" d="M356.672 505.647C364.557 505.652 372.294 503.505 379.049 499.437C385.804 495.368 391.32 489.533 395.003 482.561C398.686 475.589 400.396 467.743 399.948 459.871C399.501 451.998 396.913 444.397 392.464 437.887C391.992 456.763 381.574 484.629 327.39 494.212C335.366 501.569 345.821 505.652 356.672 505.647Z" fill="white"/>
<path d="M377.992 479.305C370.265 471.788 360.882 466.189 350.598 462.958M377.992 479.305H380.291C385.391 474.25 389.783 468.527 393.347 462.293C373.055 440.852 353.32 443.042 353.32 443.042C353.32 443.042 373.116 440.852 393.407 462.317C394.521 460.32 395.452 458.445 396.215 456.715C387.769 444.881 373.225 436.81 365.42 435.6L363.605 435.165M377.992 479.305C360.169 479.051 346.617 476.292 336.489 472.602C337.142 445.232 346.907 426.997 352.013 419.277C353.64 419.089 355.276 418.992 356.914 418.987C358.402 418.987 359.854 419.072 361.306 419.205M363.605 435.165C360.808 434.656 357.946 434.615 355.135 435.044M363.605 435.165L368.772 420.645C366.33 419.947 363.832 419.465 361.306 419.205M361.306 419.205C357.954 424.613 349.327 441.892 349.327 476.171M387.781 470.484C370.526 453.665 351.481 452.782 351.481 452.782" stroke="#263238" stroke-width="1.1133" stroke-linecap="round" stroke-linejoin="round"/>
<path d="M336.441 472.675C337.094 445.304 346.859 427.07 351.965 419.35C347.97 419.798 344.056 420.8 340.337 422.326C331.166 435.78 325.986 451.552 325.393 467.822C328.947 469.719 332.64 471.342 336.441 472.675Z" stroke="#263238" stroke-width="1.1133" stroke-linecap="round" stroke-linejoin="round"/>
<path d="M340.337 422.29C332.854 425.375 326.383 430.49 321.653 437.059C316.924 443.627 314.125 451.386 313.572 459.461C317.135 462.737 321.109 465.536 325.394 467.786C325.986 451.515 331.167 435.743 340.337 422.29Z" stroke="#263238" stroke-width="1.1133" stroke-linecap="round" stroke-linejoin="round"/>
<path d="M396.154 456.715C397.097 454.631 397.906 452.489 398.574 450.302C396.765 444.13 393.612 438.436 389.342 433.628L385.99 444.808L389.281 433.628C386.609 430.63 383.535 428.015 380.146 425.86L376.455 439.666L380.17 425.92C376.627 423.654 372.771 421.921 368.724 420.778L363.557 435.298C371.47 436.435 383.703 441.094 396.154 456.715Z" stroke="#263238" stroke-width="1.1133" stroke-linecap="round" stroke-linejoin="round"/>
<path d="M359.068 495.773C364.109 492.724 368.918 489.307 373.455 485.549C375.935 483.468 380.485 479.342 380.63 479.342C380.485 479.342 389.173 469.541 392.052 464.422C392.052 464.495 393.335 462.389 393.262 462.317C393.19 462.244 394.303 460.49 394.23 460.417C394.936 459.231 395.55 457.993 396.07 456.715C397.013 454.631 397.821 452.489 398.49 450.302C399.645 454.256 400.232 458.354 400.232 462.474C400.232 463.152 400.232 463.733 400.232 464.362C381.937 490.05 367.84 501.061 358.971 505.889C358.257 505.889 357.531 505.889 356.793 505.889C352.356 505.889 347.945 505.212 343.713 503.88C348.983 501.476 354.11 498.77 359.068 495.773ZM359.068 495.773H359.382" stroke="#263238" stroke-width="1.1133" stroke-linecap="round" stroke-linejoin="round"/>
<path d="M400.232 464.362C381.937 490.05 367.84 501.061 359.043 505.78C369.831 505.237 380.028 500.692 387.645 493.034C395.261 485.375 399.749 475.152 400.232 464.362Z" stroke="#263238" stroke-width="1.1133" stroke-linecap="round" stroke-linejoin="round"/>
<path d="M322.937 489.53C328.306 496.279 335.564 501.275 343.785 503.88C349.056 501.476 354.183 498.77 359.14 495.773C348.807 497.685 332.641 492.942 322.937 489.53Z" stroke="#263238" stroke-width="1.1133" stroke-linecap="round" stroke-linejoin="round"/>
<path d="M359.14 495.773C364.181 492.724 368.99 489.307 373.527 485.549C342.321 488.743 323.07 479.075 314.891 473.582C316.434 479.4 319.175 484.831 322.937 489.53C332.641 492.942 348.807 497.685 359.14 495.773Z" stroke="#263238" stroke-width="1.1133" stroke-linecap="round" stroke-linejoin="round"/>
<path d="M377.992 479.329H380.291C378.246 481.386 376.008 483.468 373.527 485.549C342.321 488.743 323.07 479.075 314.891 473.606C313.936 469.981 313.452 466.247 313.451 462.498C313.451 461.494 313.499 460.514 313.572 459.522C316.209 462.002 321.57 467.544 336.441 472.699C346.617 476.317 360.169 479.075 377.992 479.329ZM377.992 479.329C378.162 479.487 378.331 479.644 378.488 479.813" stroke="#263238" stroke-width="1.1133" stroke-linecap="round" stroke-linejoin="round"/>
</g>
<path d="M356.672 505.647C380.602 505.647 400.002 486.247 400.002 462.317C400.002 438.386 380.602 418.987 356.672 418.987C332.741 418.987 313.342 438.386 313.342 462.317C313.342 486.247 332.741 505.647 356.672 505.647Z" stroke="#263238" stroke-width="1.1133" stroke-linecap="round" stroke-linejoin="round"/>
<path d="M436.483 388.265C436.483 388.265 433.519 378.645 424.879 375.185C418.829 372.765 411.969 373.418 405.737 374.495C394.145 376.516 384.03 381.126 373.067 385.058C373.067 385.058 377.762 383.328 397.013 392.718C404.104 396.166 412.211 398.852 420.318 398.671C426.815 398.526 436.81 396.662 436.483 388.265Z" fill="#3B82F6"/>
<path d="M437.524 359.987C437.524 359.987 437.524 349.908 430.264 344.112C425.206 340.071 418.406 338.679 412.114 337.917C400.425 336.501 389.414 337.989 377.75 338.582C377.75 338.582 382.747 338.292 398.465 352.836C404.261 358.184 411.255 363.097 419.035 365.263C425.303 367.005 435.394 368.118 437.524 359.987Z" fill="#3B82F6"/>
<path d="M457.38 397.388C457.38 397.388 449.527 391.084 449.503 381.779C449.503 375.306 452.613 369.123 455.916 363.738C462.063 353.695 470.073 346 477.793 337.227C477.793 337.227 474.453 340.954 476.075 362.31C476.68 370.175 476.171 378.706 473.013 386.172C470.533 392.173 465.124 400.776 457.38 397.388Z" fill="#3B82F6"/>
<path d="M485.21 412.852C485.21 412.852 484.097 402.845 490.655 396.239C495.205 391.653 501.799 389.475 507.934 387.998C519.38 385.24 530.488 385.445 542.14 384.683C542.14 384.683 537.155 384.961 523.216 401.224C518.086 407.274 511.709 412.9 504.195 415.962C498.205 418.418 488.308 420.681 485.21 412.852Z" fill="#3B82F6"/>
<path d="M483.431 377.169C483.431 377.169 473.449 375.802 468.657 367.828C465.318 362.286 464.822 355.365 464.882 349.049C465.003 337.288 467.931 326.555 470.049 315.072C470.049 315.072 469.093 319.985 481.459 337.469C486.009 343.918 489.929 351.493 491.139 359.527C491.998 365.977 491.768 376.129 483.431 377.169Z" fill="#3B82F6"/>
<path d="M512.157 359.249C512.157 359.249 519.332 366.315 528.576 365.299C535.001 364.561 540.785 360.725 545.746 356.829C554.991 349.569 561.706 340.688 569.511 332.012C569.511 332.012 566.207 335.751 544.802 336.634C536.925 336.961 528.516 338.449 521.461 342.466C515.799 345.637 507.897 352.013 512.157 359.249Z" fill="#3B82F6"/>
<path d="M503.844 352.267C503.844 352.267 513.863 353.272 520.397 346.653C524.946 342.043 527.052 335.436 528.467 329.277C531.105 317.819 530.791 306.699 531.42 295.046C531.42 295.046 531.202 300.032 515.073 314.14C509.144 319.331 503.517 325.768 500.553 333.307C498.145 339.369 495.979 349.291 503.844 352.267Z" fill="#3B82F6"/>
<path d="M468.064 449.805L450.761 407.225L430.808 357.99" stroke="#263238" stroke-width="1.1133" stroke-linecap="round" stroke-linejoin="round"/>
<path d="M472.057 442.485L489.348 383.28L507.982 346.689" stroke="#263238" stroke-width="1.1133" stroke-linecap="round" stroke-linejoin="round"/>
<path d="M478.7 419.204L496.003 409.222" stroke="#263238" stroke-width="1.1133" stroke-linecap="round" stroke-linejoin="round"/>
<path d="M489.348 383.279L480.697 363.98" stroke="#263238" stroke-width="1.1133" stroke-linecap="round" stroke-linejoin="round"/>
<path d="M500.178 364.077L521.28 354.663" stroke="#263238" stroke-width="1.1133" stroke-linecap="round" stroke-linejoin="round"/>
<path d="M454.089 415.212L461.409 385.942" stroke="#263238" stroke-width="1.1133" stroke-linecap="round" stroke-linejoin="round"/>
<path d="M444.385 392.96L427.481 383.945" stroke="#263238" stroke-width="1.1133" stroke-linecap="round" stroke-linejoin="round"/>
<path d="M476.934 471.089H462.51C460.153 471.088 457.869 470.265 456.053 468.76C454.238 467.256 453.004 465.166 452.564 462.849L447.434 435.83H492.01L486.892 462.849C486.45 465.167 485.214 467.257 483.396 468.762C481.578 470.266 479.293 471.089 476.934 471.089Z" fill="#263238" stroke="#263238" stroke-width="1.1133" stroke-linecap="round" stroke-linejoin="round"/>
<path d="M70.9785 306.372C70.9785 303.02 72.5273 300.552 76.0121 300.552C79.4969 300.552 81.1062 302.972 81.1062 306.372V318.133C81.1062 321.485 79.5574 323.953 76.0121 323.953C72.4668 323.953 70.9785 321.533 70.9785 318.133V306.372ZM72.491 318.23C72.491 320.735 73.4832 322.574 76.0121 322.574C78.541 322.574 79.6421 320.735 79.6421 318.23V306.275C79.6421 303.771 78.6257 301.931 76.0121 301.931C73.3985 301.931 72.491 303.771 72.491 306.275V318.23Z" fill="#263238"/>
<path d="M83.49 306.372C83.49 303.02 85.0388 300.552 88.5236 300.552C92.0084 300.552 93.6177 302.972 93.6177 306.372V318.133C93.6177 321.485 92.0689 323.953 88.5236 323.953C84.9783 323.953 83.49 321.533 83.49 318.133V306.372ZM85.0025 318.23C85.0025 320.735 85.9947 322.574 88.5236 322.574C91.0525 322.574 92.1536 320.735 92.1536 318.23V306.275C92.1536 303.771 91.1372 301.931 88.5236 301.931C85.91 301.931 85.0025 303.771 85.0025 306.275V318.23Z" fill="#263238"/>
<path d="M100.89 300.746C104.447 300.746 105.827 302.984 105.827 306.336V308.841C105.827 312.471 104.145 314.285 100.503 314.285H97.6348V323.76H96.1223V300.77L100.89 300.746ZM100.503 312.906C103.165 312.906 104.314 311.696 104.314 308.937V306.239C104.314 303.746 103.455 302.125 100.89 302.125H97.6348V312.906H100.503Z" fill="#263238"/>
<path d="M117.793 306.299V306.796H116.341V306.203C116.341 303.783 115.422 301.931 112.929 301.931C110.437 301.931 109.505 303.71 109.505 306.13C109.505 311.708 117.818 311.805 117.818 318.157C117.818 321.473 116.378 323.905 112.857 323.905C109.335 323.905 107.896 321.485 107.896 318.157V316.947H109.348V318.23C109.348 320.65 110.291 322.465 112.82 322.465C115.349 322.465 116.305 320.686 116.305 318.23C116.305 312.7 107.992 312.604 107.992 306.203C107.992 302.742 109.505 300.516 112.832 300.479C116.16 300.443 117.793 302.984 117.793 306.299Z" fill="#263238"/>
<path d="M121.569 320.868V323.76H120.093V320.868H121.569Z" fill="#263238"/>
<path d="M125.683 320.868V323.76H124.194V320.868H125.683Z" fill="#263238"/>
<path d="M129.785 320.868V323.76H128.26V320.868H129.785Z" fill="#263238"/>
<path d="M75.8428 334.226C79.4002 334.226 80.7796 336.453 80.7796 339.804V342.309C80.7796 345.939 79.0977 347.766 75.4556 347.766H72.6V357.228H71.0754V334.238L75.8428 334.226ZM75.4556 346.326C78.1176 346.326 79.2671 345.116 79.2671 342.345V339.647C79.2671 337.155 78.408 335.545 75.8428 335.545H72.6V346.326H75.4556Z" fill="#263238"/>
<path d="M84.821 352.11L83.6715 357.204H82.28L87.3015 334.214H89.54L94.6704 357.204H93.17L91.96 352.11H84.821ZM85.0509 350.791H91.7543L88.33 335.932L85.0509 350.791Z" fill="#263238"/>
<path d="M106.746 339.841V341.547H105.27V339.744C105.27 337.324 104.326 335.4 101.785 335.4C99.2442 335.4 98.3125 337.275 98.3125 339.744V351.711C98.3125 354.131 99.2563 356.006 101.785 356.006C104.314 356.006 105.27 354.167 105.27 351.711V346.738H102.245V345.358H106.746V351.602C106.746 354.929 105.294 357.422 101.785 357.422C98.2762 357.422 96.8242 354.929 96.8242 351.602V339.841C96.8242 336.525 98.2641 334.021 101.785 334.021C105.306 334.021 106.746 336.525 106.746 339.841Z" fill="#263238"/>
<path d="M117.067 344.85V346.229H110.787V355.825H118.35V357.204H109.275V334.214H118.35V335.594H110.787V344.85H117.067Z" fill="#263238"/>
<path d="M127.292 357.228H125.913V334.238H127.885L134.782 353.598V334.238H136.161V357.228H134.492L127.232 336.658L127.292 357.228Z" fill="#263238"/>
<path d="M138.666 339.841C138.666 336.489 140.203 334.021 143.688 334.021C147.172 334.021 148.782 336.441 148.782 339.841V351.602C148.782 354.954 147.245 357.422 143.688 357.422C140.13 357.422 138.666 355.002 138.666 351.602V339.841ZM140.179 351.711C140.179 354.203 141.159 356.043 143.688 356.043C146.216 356.043 147.318 354.203 147.318 351.711V339.744C147.318 337.239 146.301 335.4 143.688 335.4C141.074 335.4 140.179 337.239 140.179 339.744V351.711Z" fill="#263238"/>
<path d="M155.158 357.228V335.606H150.5V334.226H161.39V335.606H156.683V357.228H155.158Z" fill="#263238"/>
<path d="M175.801 345.431V346.81H169.86V357.228H168.347V334.238H177.083V335.618H169.823V345.443L175.801 345.431Z" fill="#263238"/>
<path d="M179.286 339.841C179.286 336.489 180.834 334.021 184.319 334.021C187.804 334.021 189.413 336.441 189.413 339.841V351.602C189.413 354.954 187.865 357.422 184.319 357.422C180.774 357.422 179.286 355.002 179.286 351.602V339.841ZM180.798 351.711C180.798 354.203 181.79 356.043 184.319 356.043C186.848 356.043 187.949 354.203 187.949 351.711V339.744C187.949 337.239 186.933 335.4 184.319 335.4C181.706 335.4 180.798 337.239 180.798 339.744V351.711Z" fill="#263238"/>
<path d="M193.358 351.675C193.358 354.095 194.277 356.043 196.806 356.043C199.335 356.043 200.255 354.143 200.255 351.675V334.226H201.671V351.602C201.671 354.893 200.291 357.422 196.831 357.422C193.37 357.422 191.894 354.893 191.894 351.602V334.226H193.406L193.358 351.675Z" fill="#263238"/>
<path d="M205.7 357.228H204.321V334.238H206.293L213.19 353.598V334.238H214.569V357.228H212.899L205.7 336.658V357.228Z" fill="#263238"/>
<path d="M222.18 334.226C225.738 334.226 227.274 336.55 227.274 339.938V351.505C227.274 354.893 225.738 357.228 222.18 357.228H217.122V334.238L222.18 334.226ZM222.18 355.849C224.745 355.849 225.81 354.107 225.81 351.578V339.877C225.81 337.348 224.733 335.606 222.18 335.606H218.659V355.849H222.18Z" fill="#263238"/>
<path d="M279.691 414.159C252.757 414.159 236.567 390.261 230.82 369.244L230.626 368.506C230.32 367.487 230.222 366.416 230.339 365.358C230.456 364.301 230.785 363.277 231.307 362.35C231.828 361.422 232.532 360.61 233.375 359.96C234.218 359.311 235.183 358.838 236.213 358.57C237.243 358.302 238.316 358.245 239.369 358.401C240.421 358.558 241.431 358.925 242.339 359.481C243.246 360.037 244.032 360.77 244.65 361.637C245.267 362.503 245.703 363.486 245.932 364.525L246.078 365.069C250.446 381.065 262.34 399.349 281.422 398.296C285.01 398.172 288.532 397.294 291.759 395.72C294.986 394.146 297.845 391.911 300.153 389.16C310.619 377.157 315.302 351.057 314.261 337.893C314.163 337.048 314.236 336.192 314.475 335.376C314.715 334.56 315.117 333.8 315.657 333.143C316.196 332.486 316.863 331.944 317.617 331.551C318.371 331.157 319.197 330.919 320.044 330.852C320.892 330.784 321.745 330.888 322.552 331.157C323.358 331.427 324.103 331.856 324.74 332.42C325.377 332.983 325.894 333.669 326.26 334.437C326.625 335.205 326.833 336.039 326.869 336.888C328.079 351.541 326.482 383.038 312.071 399.554C308.383 403.897 303.835 407.429 298.714 409.928C293.593 412.427 288.01 413.839 282.317 414.074C281.434 414.135 280.551 414.159 279.691 414.159Z" fill="white"/>
<mask id="mask1_12_468" style="mask-type:luminance" maskUnits="userSpaceOnUse" x="230" y="330" width="98" height="85">
<path d="M279.691 414.159C252.757 414.159 236.567 390.261 230.82 369.244L230.626 368.506C230.32 367.487 230.222 366.416 230.339 365.358C230.456 364.301 230.785 363.277 231.307 362.35C231.828 361.422 232.532 360.61 233.375 359.96C234.218 359.311 235.183 358.838 236.213 358.57C237.243 358.302 238.316 358.245 239.369 358.401C240.421 358.558 241.431 358.925 242.339 359.481C243.246 360.037 244.032 360.77 244.65 361.637C245.267 362.503 245.703 363.486 245.932 364.525L246.078 365.069C250.446 381.065 262.34 399.349 281.422 398.296C285.01 398.172 288.532 397.294 291.759 395.72C294.986 394.146 297.845 391.911 300.153 389.16C310.619 377.157 315.302 351.057 314.261 337.893C314.163 337.048 314.236 336.192 314.475 335.376C314.715 334.56 315.117 333.8 315.657 333.143C316.196 332.486 316.863 331.944 317.617 331.551C318.371 331.157 319.197 330.919 320.044 330.852C320.892 330.784 321.745 330.888 322.552 331.157C323.358 331.427 324.103 331.856 324.74 332.42C325.377 332.983 325.894 333.669 326.26 334.437C326.625 335.205 326.833 336.039 326.869 336.888C328.079 351.541 326.482 383.038 312.071 399.554C308.383 403.897 303.835 407.429 298.714 409.928C293.593 412.427 288.01 413.839 282.317 414.074C281.434 414.135 280.551 414.159 279.691 414.159Z" fill="white"/>
</mask>
<g mask="url(#mask1_12_468)">
<path d="M320.057 331.08C318.386 331.216 316.836 332.01 315.75 333.287C314.663 334.564 314.128 336.221 314.261 337.893C314.769 344.318 313.91 353.816 311.684 363.303C314.864 363.168 318.043 363.577 321.086 364.513C320.366 373.616 317.169 382.349 311.841 389.765C300.092 406.088 282.475 411.303 268.765 409.343C262.631 408.472 255.6 405.253 249.684 401.95C257.712 409.779 268.478 414.168 279.692 414.183C280.551 414.183 281.434 414.183 282.317 414.111C288.01 413.875 293.593 412.464 298.714 409.965C303.835 407.466 308.383 403.934 312.071 399.591C326.482 383.074 328.031 351.578 326.87 336.925C326.81 336.092 326.586 335.28 326.21 334.534C325.835 333.789 325.315 333.125 324.682 332.582C324.049 332.039 323.314 331.626 322.52 331.368C321.726 331.111 320.889 331.013 320.057 331.08Z" fill="#3B82F6"/>
<path opacity="0.5" d="M320.057 331.08C318.386 331.216 316.836 332.01 315.75 333.287C314.663 334.564 314.128 336.221 314.261 337.893C314.769 344.318 313.91 353.816 311.684 363.303C314.864 363.168 318.043 363.577 321.086 364.513C320.366 373.616 317.169 382.349 311.841 389.765C300.092 406.088 282.475 411.303 268.765 409.343C262.631 408.472 255.6 405.253 249.684 401.95C257.712 409.779 268.478 414.168 279.692 414.183C280.551 414.183 281.434 414.183 282.317 414.111C288.01 413.875 293.593 412.464 298.714 409.965C303.835 407.466 308.383 403.934 312.071 399.591C326.482 383.074 328.031 351.578 326.87 336.925C326.81 336.092 326.586 335.28 326.21 334.534C325.835 333.789 325.315 333.125 324.682 332.582C324.049 332.039 323.314 331.626 322.52 331.368C321.726 331.111 320.889 331.013 320.057 331.08Z" fill="white"/>
</g>
<path d="M279.691 414.159C252.757 414.159 236.567 390.261 230.82 369.244L230.626 368.506C230.32 367.487 230.222 366.416 230.339 365.358C230.456 364.301 230.785 363.277 231.307 362.35C231.828 361.422 232.532 360.61 233.375 359.96C234.218 359.311 235.183 358.838 236.213 358.57C237.243 358.302 238.316 358.245 239.369 358.401C240.421 358.558 241.431 358.925 242.339 359.481C243.246 360.037 244.032 360.77 244.65 361.637C245.267 362.503 245.703 363.486 245.932 364.525L246.078 365.069C250.446 381.065 262.34 399.349 281.422 398.296C285.01 398.172 288.532 397.294 291.759 395.72C294.986 394.146 297.845 391.911 300.153 389.16C310.619 377.157 315.302 351.057 314.261 337.893C314.163 337.048 314.236 336.192 314.475 335.376C314.715 334.56 315.117 333.8 315.657 333.143C316.196 332.486 316.863 331.944 317.617 331.551C318.371 331.157 319.197 330.919 320.044 330.852C320.892 330.784 321.745 330.888 322.552 331.157C323.358 331.427 324.103 331.856 324.74 332.42C325.377 332.983 325.894 333.669 326.26 334.437C326.625 335.205 326.833 336.039 326.869 336.888C328.079 351.541 326.482 383.038 312.071 399.554C308.383 403.897 303.835 407.429 298.714 409.928C293.593 412.427 288.01 413.839 282.317 414.074C281.434 414.135 280.551 414.159 279.691 414.159Z" stroke="#263238" stroke-width="1.1133" stroke-linecap="round" stroke-linejoin="round"/>
<path d="M264.155 397.788C264.796 394.823 257.706 399.457 251.765 403.777C253.962 405.634 256.328 407.283 258.831 408.702C260.949 405.253 263.538 400.643 264.155 397.788Z" fill="#3B82F6" stroke="#263238" stroke-width="1.1133" stroke-linecap="round" stroke-linejoin="round"/>
<path d="M279.691 414.159C280.551 414.159 281.434 414.159 282.317 414.086C284.888 413.942 287.442 413.582 289.952 413.009C286.613 408.653 282.015 402.894 280.696 402.458C279.183 401.95 276.267 409.367 274.646 413.868C276.321 414.064 278.005 414.161 279.691 414.159Z" fill="#3B82F6" stroke="#263238" stroke-width="1.1133" stroke-linecap="round" stroke-linejoin="round"/>
<path d="M246.078 365.069L245.932 364.525C245.703 363.485 245.267 362.503 244.65 361.636C244.032 360.77 243.246 360.037 242.339 359.481C241.431 358.925 240.421 358.558 239.369 358.401C238.316 358.244 237.243 358.302 236.213 358.57C235.183 358.838 234.218 359.31 233.375 359.96C232.532 360.609 231.828 361.422 231.307 362.35C230.785 363.277 230.456 364.301 230.339 365.358C230.222 366.416 230.32 367.486 230.626 368.506L230.82 369.244C232.837 376.625 235.936 383.667 240.016 390.14L254.427 383.28C250.648 377.718 247.826 371.562 246.078 365.069Z" fill="#3B82F6" stroke="#263238" stroke-width="1.1133" stroke-linecap="round" stroke-linejoin="round"/>
<path d="M312.071 399.554C313.178 398.272 314.205 396.922 315.144 395.513C310.57 393.952 303.722 391.798 301.181 392.028C298.168 392.306 302.258 401.986 304.363 406.548C307.197 404.526 309.784 402.179 312.071 399.554Z" fill="#3B82F6" stroke="#263238" stroke-width="1.1133" stroke-linecap="round" stroke-linejoin="round"/>
<path d="M312.325 373.696C311.841 374.664 317.758 378.972 321.751 381.743C323.018 377.974 324.036 374.126 324.8 370.224C319.96 371.192 312.797 372.753 312.325 373.696Z" fill="#3B82F6" stroke="#263238" stroke-width="1.1133" stroke-linecap="round" stroke-linejoin="round"/>
<path d="M326.76 355.801C327.027 352.352 327.16 349.061 327.172 346.036C323.009 348.323 318.073 351.493 318.073 353.574C318.073 355.655 322.695 355.909 326.76 355.801Z" fill="#3B82F6" stroke="#263238" stroke-width="1.1133" stroke-linecap="round" stroke-linejoin="round"/>
<path d="M261.614 262.183C261.614 262.183 249.865 296.208 256.193 322.683C258.067 330.43 261.706 337.64 266.825 343.75C271.944 349.859 278.406 354.704 285.705 357.906C285.705 357.906 268.535 363.956 272.395 373.261C276.255 382.566 291.053 376.576 295.881 373.563C300.709 370.55 306.771 361.524 307.618 355.498C308.156 352.419 308.359 349.291 308.223 346.169C308.223 346.169 327.789 344.064 341.038 333.222C341.038 333.222 352.787 342.551 361.221 340.748C369.655 338.945 381.694 323.881 380.484 310.341C379.274 296.801 371.47 296.813 366.702 298.87C364.228 299.806 361.971 301.239 360.072 303.081C360.072 303.081 366.993 294.611 360.072 282.91C358.029 279.478 355.232 276.556 351.892 274.365C348.553 272.174 344.758 270.772 340.796 270.266C340.796 270.266 337.166 250.99 326.349 243.767C315.532 236.543 276.969 229.065 261.614 262.183Z" fill="white"/>
<mask id="mask2_12_468" style="mask-type:luminance" maskUnits="userSpaceOnUse" x="254" y="237" width="127" height="142">
<path d="M261.614 262.183C261.614 262.183 249.865 296.208 256.193 322.683C258.067 330.43 261.706 337.64 266.825 343.75C271.944 349.859 278.406 354.704 285.705 357.906C285.705 357.906 268.535 363.956 272.395 373.261C276.255 382.566 291.053 376.576 295.881 373.563C300.709 370.55 306.771 361.524 307.618 355.498C308.156 352.419 308.359 349.291 308.223 346.169C308.223 346.169 327.789 344.064 341.038 333.222C341.038 333.222 352.787 342.551 361.221 340.748C369.655 338.945 381.694 323.881 380.484 310.341C379.274 296.801 371.47 296.813 366.702 298.87C364.228 299.806 361.971 301.239 360.072 303.081C360.072 303.081 366.993 294.611 360.072 282.91C358.029 279.478 355.232 276.556 351.892 274.365C348.553 272.174 344.758 270.772 340.796 270.266C340.796 270.266 337.166 250.99 326.349 243.767C315.532 236.543 276.969 229.065 261.614 262.183Z" fill="white"/>
</mask>
<g mask="url(#mask2_12_468)">
<path d="M351.069 273.884C345.484 283.201 337.754 291.051 328.523 296.78C319.293 302.508 308.828 305.95 297.999 306.82C274.041 308.925 260.61 304.206 254.439 300.927C255.187 287.762 257.628 274.749 261.699 262.207C277.054 229.089 315.592 236.616 326.434 243.839C337.275 251.063 340.881 270.338 340.881 270.338C344.489 270.791 347.96 271.999 351.069 273.884ZM366.703 298.87C364.228 299.806 361.971 301.239 360.072 303.081C361.537 301.061 362.503 298.722 362.891 296.257C346.617 304.364 347.887 321.667 345.866 321.667C343.374 321.667 342.14 312.967 342.14 312.967C342.14 312.967 339.03 325.393 320.36 334.105C301.689 342.817 280.575 335.969 280.575 335.969C280.575 335.969 284.931 345.915 273.738 344.669C270.597 344.368 267.585 343.269 264.99 341.474C270.357 348.63 277.485 354.274 285.681 357.858C285.681 357.858 268.511 363.908 272.371 373.213C276.231 382.517 291.041 376.528 295.857 373.515C300.673 370.502 306.747 361.476 307.594 355.45C308.132 352.371 308.335 349.243 308.199 346.121C308.199 346.121 327.765 344.015 341.014 333.174C341.014 333.174 352.763 342.503 361.197 340.7C369.631 338.897 381.67 323.832 380.46 310.293C379.25 296.753 371.47 296.813 366.703 298.87Z" fill="#3B82F6"/>
<path opacity="0.5" d="M351.069 273.884C345.484 283.201 337.754 291.051 328.523 296.78C319.293 302.508 308.828 305.95 297.999 306.82C274.041 308.925 260.61 304.206 254.439 300.927C255.187 287.762 257.628 274.749 261.699 262.207C277.054 229.089 315.592 236.616 326.434 243.839C337.275 251.063 340.881 270.338 340.881 270.338C344.489 270.791 347.96 271.999 351.069 273.884ZM366.703 298.87C364.228 299.806 361.971 301.239 360.072 303.081C361.537 301.061 362.503 298.722 362.891 296.257C346.617 304.364 347.887 321.667 345.866 321.667C343.374 321.667 342.14 312.967 342.14 312.967C342.14 312.967 339.03 325.393 320.36 334.105C301.689 342.817 280.575 335.969 280.575 335.969C280.575 335.969 284.931 345.915 273.738 344.669C270.597 344.368 267.585 343.269 264.99 341.474C270.357 348.63 277.485 354.274 285.681 357.858C285.681 357.858 268.511 363.908 272.371 373.213C276.231 382.517 291.041 376.528 295.857 373.515C300.673 370.502 306.747 361.476 307.594 355.45C308.132 352.371 308.335 349.243 308.199 346.121C308.199 346.121 327.765 344.015 341.014 333.174C341.014 333.174 352.763 342.503 361.197 340.7C369.631 338.897 381.67 323.832 380.46 310.293C379.25 296.753 371.47 296.813 366.703 298.87Z" fill="white"/>
<path d="M308.284 346.193C301.79 346.366 295.343 345.048 289.438 342.34C283.533 339.632 278.328 335.606 274.222 330.572" stroke="#263238" stroke-width="1.1133" stroke-linecap="round" stroke-linejoin="round"/>
</g>
<path d="M261.614 262.183C261.614 262.183 249.865 296.208 256.193 322.683C258.067 330.43 261.706 337.64 266.825 343.75C271.944 349.859 278.406 354.704 285.705 357.906C285.705 357.906 268.535 363.956 272.395 373.261C276.255 382.566 291.053 376.576 295.881 373.563C300.709 370.55 306.771 361.524 307.618 355.498C308.156 352.419 308.359 349.291 308.223 346.169C308.223 346.169 327.789 344.064 341.038 333.222C341.038 333.222 352.787 342.551 361.221 340.748C369.655 338.945 381.694 323.881 380.484 310.341C379.274 296.801 371.47 296.813 366.702 298.87C364.228 299.806 361.971 301.239 360.072 303.081C360.072 303.081 366.993 294.611 360.072 282.91C358.029 279.478 355.232 276.556 351.892 274.365C348.553 272.174 344.758 270.772 340.796 270.266C340.796 270.266 337.166 250.99 326.349 243.767C315.532 236.543 276.969 229.065 261.614 262.183Z" stroke="#263238" stroke-width="1.1133" stroke-linecap="round" stroke-linejoin="round"/>
<path d="M360.072 303.129C360.072 303.129 353.756 307.352 350.743 320.299" stroke="#263238" stroke-width="1.1133" stroke-linecap="round" stroke-linejoin="round"/>
<path d="M371.676 308.671C370.937 310.873 368.917 312.192 367.174 311.599C365.432 311.006 364.633 308.744 365.371 306.541C366.11 304.339 368.13 303.02 369.873 303.613C371.615 304.206 372.426 306.469 371.676 308.671Z" fill="white" stroke="#263238" stroke-width="1.1133" stroke-linecap="round" stroke-linejoin="round"/>
<path d="M377.907 312.591C377.169 314.794 375.148 316.113 373.406 315.52C371.664 314.927 370.853 312.664 371.603 310.462C372.353 308.26 374.362 306.941 376.104 307.534C377.847 308.127 378.657 310.389 377.907 312.591Z" fill="white" stroke="#263238" stroke-width="1.1133" stroke-linecap="round" stroke-linejoin="round"/>
<path d="M379.238 318.46C378.997 318.865 378.645 319.193 378.224 319.407C377.804 319.62 377.331 319.709 376.862 319.665C376.392 319.62 375.945 319.443 375.572 319.155C375.199 318.866 374.916 318.478 374.755 318.034C374.594 317.591 374.562 317.111 374.662 316.651C374.763 316.19 374.992 315.767 375.324 315.432C375.655 315.096 376.075 314.862 376.534 314.755C376.994 314.649 377.474 314.675 377.919 314.83C378.562 315.151 379.057 315.707 379.302 316.382C379.547 317.057 379.525 317.801 379.238 318.46Z" fill="white" stroke="#263238" stroke-width="1.1133" stroke-linecap="round" stroke-linejoin="round"/>
<path d="M371.288 326.519C369.11 330.451 364.754 332.193 361.548 330.415C358.341 328.636 357.519 324.026 359.697 320.093C361.875 316.161 366.231 314.419 369.437 316.197C372.644 317.976 373.466 322.586 371.288 326.519Z" fill="white" stroke="#263238" stroke-width="1.1133" stroke-linecap="round" stroke-linejoin="round"/>
<path d="M285.705 357.93C289.761 359.818 294.372 360.141 298.652 358.838" stroke="#263238" stroke-width="1.1133" stroke-linecap="round" stroke-linejoin="round"/>
<path d="M272.456 373.285C272.456 373.285 273.666 368.167 281.18 364.561" stroke="#263238" stroke-width="1.1133" stroke-linecap="round" stroke-linejoin="round"/>
<path d="M279.982 377.811C279.982 377.811 282.995 370.551 288.113 367.271" stroke="#263238" stroke-width="1.1133" stroke-linecap="round" stroke-linejoin="round"/>
<path d="M161.244 294.514C159.964 293.493 158.944 292.183 158.267 290.692C157.59 289.201 157.275 287.571 157.348 285.935V257.246H83.3447C81.537 257.314 79.736 256.99 78.0652 256.297C76.3944 255.603 74.8932 254.557 73.6647 253.229C71.2442 250.668 69.9161 247.266 69.9621 243.743C69.9523 240.88 70.7947 238.079 72.3821 235.696L143.264 124.303C148.588 116.084 155.662 111.974 164.487 111.974C169.232 111.812 173.864 113.436 177.471 116.523C180.931 119.548 182.662 124.045 182.662 130.015V238.298H201.489C202.79 238.219 204.091 238.428 205.302 238.909C206.513 239.39 207.603 240.131 208.495 241.081C210.087 242.947 210.962 245.319 210.962 247.772C210.962 250.225 210.087 252.597 208.495 254.463C207.603 255.413 206.513 256.154 205.302 256.635C204.091 257.116 202.79 257.325 201.489 257.246H182.528V285.935C182.607 287.559 182.308 289.178 181.655 290.667C181.002 292.155 180.013 293.472 178.765 294.514C176.33 296.556 173.244 297.659 170.065 297.624C166.852 297.649 163.731 296.549 161.244 294.514ZM157.3 238.298V138.594L95.239 238.298H157.3Z" fill="#263238"/>
<path d="M263.937 295.095C256.684 291.93 250.261 287.13 245.17 281.071C240.057 274.67 236.064 267.449 233.36 259.714C230.297 251.359 228.142 242.698 226.935 233.881C225.676 224.281 225.07 214.607 225.12 204.926C225.12 141.143 246.9 109.251 290.46 109.251C334.02 109.251 355.748 141.143 355.643 204.926C355.686 214.561 355.1 224.189 353.889 233.748C352.721 242.566 350.587 251.23 347.524 259.581C344.821 267.316 340.828 274.536 335.714 280.938C330.617 287.005 324.197 291.823 316.947 295.022C308.612 298.707 299.572 300.524 290.46 300.346C281.344 300.529 272.296 298.738 263.937 295.095ZM303.335 276.788C306.98 275.233 310.288 272.985 313.075 270.169C315.898 267.163 318.219 263.723 319.948 259.981C321.857 256.015 323.4 251.884 324.558 247.639C325.778 243.013 326.668 238.306 327.22 233.554C327.874 228.311 328.309 223.507 328.527 219.143C328.745 214.779 328.85 210.04 328.842 204.926C328.842 199.561 328.737 194.608 328.527 190.067C328.317 185.525 327.861 180.653 327.16 175.45C326.557 170.701 325.648 165.997 324.437 161.366C323.292 157.163 321.748 153.079 319.827 149.169C318.084 145.485 315.76 142.106 312.942 139.162C310.171 136.403 306.881 134.219 303.262 132.737C294.989 129.543 285.823 129.543 277.55 132.737C273.957 134.201 270.692 136.365 267.942 139.102C265.146 142.033 262.827 145.385 261.069 149.036C259.131 152.91 257.606 156.978 256.52 161.172C255.339 165.831 254.45 170.559 253.858 175.329C253.156 180.605 252.7 185.517 252.491 190.067C252.281 194.616 252.172 199.569 252.164 204.926C252.164 210.032 252.273 214.791 252.491 219.204C252.708 223.616 253.14 228.456 253.785 233.724C254.343 238.475 255.233 243.181 256.447 247.808C257.59 252.052 259.116 256.183 261.009 260.15C262.721 263.87 265.021 267.29 267.821 270.278C270.588 273.076 273.877 275.304 277.501 276.836C285.782 280.207 295.054 280.207 303.335 276.836V276.788Z" fill="#263238"/>
<path d="M467.762 294.514C466.482 293.493 465.462 292.183 464.784 290.692C464.107 289.201 463.792 287.571 463.866 285.935V257.246H389.862C388.054 257.314 386.253 256.99 384.582 256.296C382.912 255.603 381.411 254.557 380.182 253.229C377.762 250.668 376.433 247.266 376.479 243.742C376.47 240.88 377.312 238.078 378.899 235.696L449.781 124.303C455.057 116.083 462.111 111.973 470.944 111.973C475.713 111.794 480.375 113.418 484 116.523C487.461 119.548 489.191 124.045 489.191 130.015V238.297H508.019C509.319 238.219 510.621 238.428 511.831 238.909C513.042 239.39 514.132 240.131 515.024 241.08C516.616 242.946 517.491 245.319 517.491 247.772C517.491 250.225 516.616 252.597 515.024 254.463C514.132 255.412 513.042 256.154 511.831 256.635C510.621 257.116 509.319 257.324 508.019 257.246H489.046V285.935C489.124 287.559 488.825 289.178 488.172 290.667C487.519 292.155 486.53 293.472 485.283 294.514C482.847 296.556 479.761 297.659 476.583 297.624C473.369 297.649 470.249 296.549 467.762 294.514ZM463.866 238.297V138.593L401.805 238.297H463.866Z" fill="#263238"/>
<path d="M237.22 245.025C237.22 245.025 224.576 262.788 222.773 280.853C220.97 298.918 223.076 310.958 228.496 315.483C233.917 320.009 239.326 318.194 242.339 313.971C245.352 309.748 240.536 294.998 240.536 294.998C240.536 294.998 245.654 280.853 253.483 270.919C261.312 260.985 262.812 259.472 262.812 259.472C262.812 259.472 249.26 244.118 237.22 245.025Z" fill="white"/>
<mask id="mask3_12_468" style="mask-type:luminance" maskUnits="userSpaceOnUse" x="222" y="244" width="41" height="75">
<path d="M237.22 245.025C237.22 245.025 224.576 262.788 222.773 280.853C220.97 298.918 223.076 310.958 228.496 315.483C233.917 320.009 239.326 318.194 242.339 313.971C245.352 309.748 240.536 294.998 240.536 294.998C240.536 294.998 245.654 280.853 253.483 270.919C261.312 260.985 262.812 259.472 262.812 259.472C262.812 259.472 249.26 244.118 237.22 245.025Z" fill="white"/>
</mask>
<g mask="url(#mask3_12_468)">
<path d="M237.22 245.025C234.461 249.102 232.014 253.381 229.9 257.827C235.95 260.247 245.327 265.208 251.281 273.992C252.007 272.94 252.757 271.899 253.531 270.919C261.36 260.985 262.86 259.472 262.86 259.472C262.86 259.472 249.26 244.118 237.22 245.025Z" fill="#3B82F6"/>
<path opacity="0.5" d="M237.22 245.025C234.461 249.102 232.014 253.381 229.9 257.827C235.95 260.247 245.327 265.208 251.281 273.992C252.007 272.94 252.757 271.899 253.531 270.919C261.36 260.985 262.86 259.472 262.86 259.472C262.86 259.472 249.26 244.118 237.22 245.025Z" fill="white"/>
</g>
<path d="M237.22 245.025C237.22 245.025 224.576 262.788 222.773 280.853C220.97 298.918 223.076 310.958 228.496 315.483C233.917 320.009 239.326 318.194 242.339 313.971C245.352 309.748 240.536 294.998 240.536 294.998C240.536 294.998 245.654 280.853 253.483 270.919C261.312 260.985 262.812 259.472 262.812 259.472C262.812 259.472 249.26 244.118 237.22 245.025Z" stroke="#263238" stroke-width="1.1133" stroke-linecap="round" stroke-linejoin="round"/>
<path d="M228.496 315.484C227.018 311.536 226.299 307.344 226.379 303.129" stroke="#263238" stroke-width="1.1133" stroke-linecap="round" stroke-linejoin="round"/>
<path d="M236.615 317.286C236.615 317.286 233.615 312.168 233.312 303.432" stroke="#263238" stroke-width="1.1133" stroke-linecap="round" stroke-linejoin="round"/>
<path d="M241.141 277.235C241.141 274.065 235.091 267.87 226.681 265.135C225.551 268.083 224.617 271.103 223.886 274.174C227.153 274.733 230.326 275.747 233.312 277.187C237.825 279.643 241.141 280.853 241.141 277.235Z" fill="#3B82F6" stroke="#263238" stroke-width="1.1133" stroke-linecap="round" stroke-linejoin="round"/>
<path d="M236.482 246.102C234.532 249.075 232.739 252.149 231.11 255.31C233.656 255.983 236.099 257.001 238.37 258.335C247.699 263.744 249.502 264.385 246.501 256.52C244.686 251.583 240.354 248.232 236.482 246.102Z" fill="#3B82F6" stroke="#263238" stroke-width="1.1133" stroke-linecap="round" stroke-linejoin="round"/>
<path d="M336.259 236.253C336.259 236.253 350.585 252.684 354.155 270.496C357.724 288.307 356.817 300.492 351.856 305.513C346.895 310.535 341.341 309.276 337.929 305.368C334.517 301.46 337.929 286.322 337.929 286.322C337.929 286.322 331.443 272.734 322.683 263.611C313.922 254.487 312.265 253.144 312.265 253.144C312.265 253.144 324.183 236.531 336.259 236.253Z" fill="white"/>
<mask id="mask4_12_468" style="mask-type:luminance" maskUnits="userSpaceOnUse" x="312" y="236" width="45" height="73">
<path d="M336.259 236.253C336.259 236.253 350.585 252.684 354.155 270.496C357.724 288.307 356.817 300.492 351.856 305.513C346.895 310.535 341.341 309.276 337.929 305.368C334.517 301.46 337.929 286.322 337.929 286.322C337.929 286.322 331.443 272.734 322.683 263.611C313.922 254.487 312.265 253.144 312.265 253.144C312.265 253.144 324.183 236.531 336.259 236.253Z" fill="white"/>
</mask>
<g mask="url(#mask4_12_468)">
<path d="M336.259 236.253C324.159 236.531 312.204 253.193 312.204 253.193C312.204 253.193 313.85 254.548 322.622 263.659C324.263 265.387 325.806 267.205 327.244 269.104C331.823 261.37 338.364 254.984 346.205 250.591C343.32 245.527 339.991 240.729 336.259 236.253Z" fill="#3B82F6"/>
<path opacity="0.5" d="M336.259 236.253C324.159 236.531 312.204 253.193 312.204 253.193C312.204 253.193 313.85 254.548 322.622 263.659C324.263 265.387 325.806 267.205 327.244 269.104C331.823 261.37 338.364 254.984 346.205 250.591C343.32 245.527 339.991 240.729 336.259 236.253Z" fill="white"/>
</g>
<path d="M336.259 236.253C336.259 236.253 350.585 252.684 354.155 270.496C357.724 288.307 356.817 300.492 351.856 305.513C346.895 310.535 341.341 309.276 337.929 305.368C334.517 301.46 337.929 286.322 337.929 286.322C337.929 286.322 331.443 272.734 322.683 263.611C313.922 254.487 312.265 253.144 312.265 253.144C312.265 253.144 324.183 236.531 336.259 236.253Z" stroke="#263238" stroke-width="1.1133" stroke-linecap="round" stroke-linejoin="round"/>
<path d="M351.856 305.513C352.94 301.445 353.244 297.207 352.751 293.026" stroke="#263238" stroke-width="1.1133" stroke-linecap="round" stroke-linejoin="round"/>
<path d="M343.942 308.102C343.942 308.102 346.447 302.718 345.89 293.994" stroke="#263238" stroke-width="1.1133" stroke-linecap="round" stroke-linejoin="round"/>
<path d="M335.521 268.693C335.218 265.535 340.627 258.783 348.734 255.286C350.136 258.106 351.349 261.016 352.364 263.998C349.173 264.888 346.12 266.211 343.289 267.93C339.054 270.774 335.884 272.25 335.521 268.693Z" fill="#3B82F6" stroke="#263238" stroke-width="1.1133" stroke-linecap="round" stroke-linejoin="round"/>
<path d="M337.094 237.257C339.319 240.003 341.396 242.867 343.313 245.836C340.836 246.753 338.496 248.002 336.356 249.55C327.608 255.867 325.865 256.641 328.092 248.558C329.483 243.513 333.452 239.749 337.094 237.257Z" fill="#3B82F6" stroke="#263238" stroke-width="1.1133" stroke-linecap="round" stroke-linejoin="round"/>
<path d="M236.035 229.658C236.035 229.658 232.308 242.23 233.711 247.348C235.115 252.467 241.625 247.82 248.147 253.398C254.669 258.976 260.707 269.044 285.403 270.907C310.099 272.77 325.006 259.448 330.173 251.995C335.339 244.541 334.831 235.696 343.676 235.236C352.521 234.776 345.08 217.534 342.285 214.739C342.285 214.739 359.515 189.123 359.515 182.601C359.515 176.079 343.216 177.471 323.215 183.533C323.215 183.533 308.308 175.607 281.289 180.266C254.269 184.924 246.356 192.85 246.356 192.85C246.356 192.85 212.815 197.036 210.492 201.223C208.168 205.41 215.077 223.136 236.035 229.658Z" fill="white"/>
<mask id="mask5_12_468" style="mask-type:luminance" maskUnits="userSpaceOnUse" x="210" y="178" width="150" height="94">
<path d="M236.035 229.658C236.035 229.658 232.308 242.23 233.711 247.348C235.115 252.467 241.625 247.82 248.147 253.398C254.669 258.976 260.707 269.044 285.403 270.907C310.099 272.77 325.006 259.448 330.173 251.995C335.339 244.541 334.831 235.696 343.676 235.236C352.521 234.776 345.08 217.534 342.285 214.739C342.285 214.739 359.515 189.123 359.515 182.601C359.515 176.079 343.216 177.471 323.215 183.533C323.215 183.533 308.308 175.607 281.289 180.266C254.269 184.924 246.356 192.85 246.356 192.85C246.356 192.85 212.815 197.036 210.492 201.223C208.168 205.41 215.077 223.136 236.035 229.658Z" fill="white"/>
</mask>
<g mask="url(#mask5_12_468)">
<path d="M343.64 235.248C352.497 234.776 345.044 217.546 342.249 214.751C342.249 214.751 345.528 209.911 349.218 203.861C339.211 198.634 329.386 195.73 326.773 198.67C321.146 204.986 324.207 217.086 326.773 228.92C329.338 240.754 319.089 245.799 311.926 256.036C304.763 266.273 294.538 255.007 294.538 255.007C290.908 269.854 275.602 260.126 275.602 260.126C263.841 256.496 243.888 244.783 247.977 236.591C252.067 228.4 253.096 220.728 245.933 214.085C238.769 207.442 210.201 201.913 210.201 201.913C208.701 206.958 215.949 223.487 236.047 229.743C236.047 229.743 232.32 242.315 233.724 247.433C235.127 252.551 241.637 247.905 248.159 253.483C254.681 259.061 260.719 269.128 285.415 270.992C310.111 272.855 325.018 259.533 330.185 252.079C335.352 244.626 334.783 235.708 343.64 235.248Z" fill="#3B82F6"/>
<path opacity="0.5" d="M343.64 235.248C352.497 234.776 345.044 217.546 342.249 214.751C342.249 214.751 345.528 209.911 349.218 203.861C339.211 198.634 329.386 195.73 326.773 198.67C321.146 204.986 324.207 217.086 326.773 228.92C329.338 240.754 319.089 245.799 311.926 256.036C304.763 266.273 294.538 255.007 294.538 255.007C290.908 269.854 275.602 260.126 275.602 260.126C263.841 256.496 243.888 244.783 247.977 236.591C252.067 228.4 253.096 220.728 245.933 214.085C238.769 207.442 210.201 201.913 210.201 201.913C208.701 206.958 215.949 223.487 236.047 229.743C236.047 229.743 232.32 242.315 233.724 247.433C235.127 252.551 241.637 247.905 248.159 253.483C254.681 259.061 260.719 269.128 285.415 270.992C310.111 272.855 325.018 259.533 330.185 252.079C335.352 244.626 334.783 235.708 343.64 235.248Z" fill="white"/>
<path d="M307.207 238.055C307.558 241.008 301 244.19 292.59 245.17C284.181 246.15 277.066 244.553 276.715 241.54C276.364 238.527 282.922 235.418 291.344 234.438C299.765 233.457 306.868 235.115 307.207 238.055Z" fill="#3B82F6"/>
<path opacity="0.5" d="M307.207 238.055C307.558 241.008 301 244.19 292.59 245.17C284.181 246.15 277.066 244.553 276.715 241.54C276.364 238.527 282.922 235.418 291.344 234.438C299.765 233.457 306.868 235.115 307.207 238.055Z" fill="white"/>
</g>
<path d="M236.035 229.658C236.035 229.658 232.308 242.23 233.711 247.348C235.115 252.467 241.625 247.82 248.147 253.398C254.669 258.976 260.707 269.044 285.403 270.907C310.099 272.77 325.006 259.448 330.173 251.995C335.339 244.541 334.831 235.696 343.676 235.236C352.521 234.776 345.08 217.534 342.285 214.739C342.285 214.739 359.515 189.123 359.515 182.601C359.515 176.079 343.216 177.471 323.215 183.533C323.215 183.533 308.308 175.607 281.289 180.266C254.269 184.924 246.356 192.85 246.356 192.85C246.356 192.85 212.815 197.036 210.492 201.223C208.168 205.41 215.077 223.136 236.035 229.658Z" stroke="#263238" stroke-width="1.1133" stroke-miterlimit="10"/>
<path d="M332.375 192.39C320.275 200.521 324.546 208.652 329.955 213.166C333.258 215.925 338.582 215.586 342.224 214.811C342.224 214.811 359.455 189.196 359.455 182.674C359.467 182.613 344.414 184.198 332.375 192.39Z" fill="#3B82F6" stroke="#263238" stroke-width="1.1133" stroke-miterlimit="10"/>
<path d="M210.189 201.828C208.689 206.874 215.937 223.402 236.035 229.658C236.035 229.658 251.377 228.158 246.259 215.816C241.48 204.297 217.316 201.429 210.189 201.828Z" fill="#3B82F6" stroke="#263238" stroke-width="1.1133" stroke-miterlimit="10"/>
<path d="M281.216 180.29C279.631 180.568 278.106 180.859 276.642 181.149C279.062 193.37 283.043 213.722 286.6 213.722C290.158 213.722 292.88 191.41 294.042 178.911C289.741 179.092 285.457 179.553 281.216 180.29Z" fill="#3B82F6" stroke="#263238" stroke-width="1.1133" stroke-miterlimit="10"/>
<path d="M267.337 210.092C271.04 207.914 270.483 191.543 269.89 182.662C266.069 183.611 262.307 184.787 258.625 186.183C259.968 194.495 263.381 212.416 267.337 210.092Z" fill="#3B82F6" stroke="#263238" stroke-width="1.1133" stroke-miterlimit="10"/>
<path d="M303.165 202.566C306.953 203.897 309.082 190.285 310.28 179.806C306.455 179.183 302.588 178.855 298.713 178.826C298.592 187.429 299.064 201.126 303.165 202.566Z" fill="#3B82F6" stroke="#263238" stroke-width="1.1133" stroke-miterlimit="10"/>
<path d="M298.096 249.683C294.562 248.755 290.807 249.218 287.605 250.978C287.465 251.059 287.345 251.172 287.256 251.308C287.167 251.443 287.111 251.597 287.092 251.758C287.073 251.919 287.092 252.083 287.148 252.235C287.203 252.387 287.293 252.525 287.411 252.636L293.836 258.686C293.957 258.799 294.102 258.881 294.261 258.927C294.42 258.972 294.587 258.979 294.749 258.947C294.911 258.915 295.063 258.845 295.192 258.743C295.322 258.641 295.425 258.509 295.494 258.359L298.785 251.099C298.844 250.962 298.873 250.813 298.869 250.664C298.865 250.515 298.83 250.368 298.764 250.234C298.699 250.099 298.605 249.981 298.49 249.886C298.374 249.791 298.24 249.722 298.096 249.683Z" fill="#3B82F6" stroke="#263238" stroke-width="1.1133" stroke-linecap="round" stroke-linejoin="round"/>
<path d="M282.825 239.58C283.709 241.915 283.358 244.214 282.039 244.711C280.72 245.207 278.929 243.73 278.034 241.407C277.138 239.084 277.501 236.773 278.82 236.277C280.139 235.781 281.93 237.257 282.825 239.58Z" fill="#263238"/>
<path d="M300.346 237.922C299.886 240.342 300.637 242.581 302.028 242.835C303.42 243.089 304.92 241.322 305.38 238.866C305.84 236.41 305.089 234.22 303.698 233.953C302.306 233.687 300.806 235.478 300.346 237.922Z" fill="#263238"/>
<path d="M295.494 258.347C295.494 258.347 286.903 270.012 279.074 258.275" stroke="#263238" stroke-width="1.1133" stroke-linecap="round" stroke-linejoin="round"/>
<path d="M293.836 258.674C293.836 258.674 299.547 264.591 305.573 261.275C311.599 257.96 307.993 252.805 307.993 252.805" stroke="#263238" stroke-width="1.1133" stroke-linecap="round" stroke-linejoin="round"/>
<path d="M267.64 230.263C267.64 230.263 269.745 222.737 279.679 224.54" stroke="#263238" stroke-width="3.33991" stroke-linecap="round" stroke-linejoin="round"/>
<path d="M297.745 223.342C297.745 223.342 305.271 218.829 312.192 226.052" stroke="#263238" stroke-width="3.33991" stroke-linecap="round" stroke-linejoin="round"/>
<path d="M261.917 250.446L269.14 252.249" stroke="#263238" stroke-width="1.1133" stroke-miterlimit="10" stroke-linecap="round"/>
<path d="M268.233 254.959L261.917 256.157" stroke="#263238" stroke-width="1.1133" stroke-miterlimit="10" stroke-linecap="round"/>
<path d="M269.443 258.275L264.929 260.683" stroke="#263238" stroke-width="1.1133" stroke-miterlimit="10" stroke-linecap="round"/>
<path d="M315.205 247.13L321.533 245.618" stroke="#263238" stroke-width="1.1133" stroke-miterlimit="10" stroke-linecap="round"/>
<path d="M316.415 250.143H320.626" stroke="#263238" stroke-width="1.1133" stroke-miterlimit="10" stroke-linecap="round"/>
<path d="M317.31 253.156L323.034 254.657" stroke="#263238" stroke-width="1.1133" stroke-miterlimit="10" stroke-linecap="round"/>
</svg>
